<svg xmlns="http://www.w3.org/2000/svg" xmlns:xlink="http://www.w3.org/1999/xlink" width="1126" height="860.89" viewBox="0 0 1126 860.89">
  <defs>
    <filter id="Path_15634" x="0" y="0" width="1126" height="860.89" filterUnits="userSpaceOnUse">
      <feOffset dy="4" input="SourceAlpha"/>
      <feGaussianBlur stdDeviation="10" result="blur"/>
      <feFlood flood-opacity="0.161"/>
      <feComposite operator="in" in2="blur"/>
      <feComposite in="SourceGraphic"/>
    </filter>
    <linearGradient id="linear-gradient" x1="0.5" x2="0.5" y2="1" gradientUnits="objectBoundingBox">
      <stop offset="0" stop-color="#d9e8f5"/>
      <stop offset="1" stop-color="#e9f5ff"/>
    </linearGradient>
  </defs>
  <g id="Group_3653" data-name="Group 3653" transform="translate(-77 -103)">
    <g transform="matrix(1, 0, 0, 1, 77, 103)" filter="url(#Path_15634)">
      <path id="Path_15634-2" data-name="Path 15634" d="M26,0H1040c14.359,0,26,19.382,26,43.291V757.6c0,23.914-11.641,43.291-26,43.291H26c-14.359,0-26-19.382-26-43.291V43.291C0,19.382,11.641,0,26,0Z" transform="translate(30 26)" fill="#f6faff"/>
    </g>
    <path id="Intersection_2" data-name="Intersection 2" d="M-4103-761.879c-.044-137.213,46.194-264.715,122.255-337.121h133.72c3.88,0,7.025,20.244,7.025,45.217v688.741q-2,.046-4,.046C-3987.04-364.995-4103-542.685-4103-761.879Z" transform="translate(5013 1228)" fill="url(#linear-gradient)"/>
  </g>
</svg>
