<svg xmlns="http://www.w3.org/2000/svg" width="98" height="61" viewBox="0 0 98 61">
  <g id="car" transform="translate(0 -6.048)">
    <path id="Path_1" data-name="Path 1" d="M96.61,21.861h-10.4a1.515,1.515,0,0,0-1.02.385L77.6,12.035a.844.844,0,0,0-.146-.149,13.27,13.27,0,0,0-7.43-2.546H68.294V6.048H63.832V9.341H34.17V6.048H29.706V9.341H28.484a13.419,13.419,0,0,0-7.444,2.527.851.851,0,0,0-.138.141l-8.01,10.336a1.444,1.444,0,0,0-1.106-.484H1.386A1.282,1.282,0,0,0,0,23.006v4.581a1.281,1.281,0,0,0,1.386,1.147H7.438A16.529,16.529,0,0,0,1.652,40.376V51.6a9.555,9.555,0,0,0,2.09,5.915V62.6c0,2.445,2.362,4.443,5.266,4.443h6.42c2.9,0,5.266-1.992,5.266-4.443v-.841H77.3V62.6c0,2.445,2.366,4.443,5.266,4.443H89c2.9,0,5.264-1.992,5.264-4.443V57.517a9.524,9.524,0,0,0,2.09-5.915V40.376A16.512,16.512,0,0,0,90.56,28.736h6.054A1.284,1.284,0,0,0,98,27.59V23.008A1.283,1.283,0,0,0,96.61,21.861ZM24.562,14.667a9.668,9.668,0,0,1,4.008-1.248H70.12a8.414,8.414,0,0,1,3.664,1.151L82.767,26.7H15.249Zm43.125,24.26v8.149H64.834V38.927Zm-4.932,0v8.149H59.9V38.927Zm-4.934,0v8.149H54.967V38.927Zm-4.93,0v8.149H50.037V38.927Zm-4.928,0v8.149H45.109V38.927Zm-4.932,0v8.149H40.174V38.927Zm-4.936,0v8.149h-2.85V38.927Zm-4.93,0v8.149H30.31V38.927ZM13.489,56.71C5.1,54.343,9.173,49.719,9.173,49.719h9.985l6.656,6.991ZM26.81,47.081H7.736V38.927H26.808l0,8.154ZM63.464,56.71H34.532a5.209,5.209,0,0,1-5.424-4.959H68.89A5.206,5.206,0,0,1,63.464,56.71Zm21.043,0H72.178l6.656-6.991h9.987S92.888,54.344,84.507,56.71Zm5.752-9.629H71.2V38.927H90.26Z" transform="translate(0 0)"/>
  </g>
</svg>
