<svg xmlns="http://www.w3.org/2000/svg" width="82" height="81.991" viewBox="0 0 82 81.991">
  <g id="keyword_1_" data-name="keyword (1)" transform="translate(0 -0.027)">
    <path id="Path_16041" data-name="Path 16041" d="M8.039,312.027H87.3v2.733H8.039Zm0,0" transform="translate(-6.666 -258.706)" fill="#3086cd"/>
    <path id="Path_16047" data-name="Path 16047" d="M112.039,152.027h43.728v2.733H112.039Zm0,0" transform="translate(-92.901 -126.036)" fill="#d6d6d4"/>
    <g id="Group_1738" data-name="Group 1738" transform="translate(23.237 30.09)">
      <path id="Path_16048" data-name="Path 16048" d="M136.039,176.027h2.733v2.733h-2.733Zm0,0" transform="translate(-136.039 -176.027)" fill="#ffb531"/>
      <path id="Path_16049" data-name="Path 16049" d="M168.039,176.027h2.733v2.733h-2.733Zm0,0" transform="translate(-162.573 -176.027)" fill="#ffb531"/>
      <path id="Path_16050" data-name="Path 16050" d="M200.039,176.027h2.733v2.733h-2.733Zm0,0" transform="translate(-189.107 -176.027)" fill="#ffb531"/>
      <path id="Path_16051" data-name="Path 16051" d="M232.039,176.027h2.733v2.733h-2.733Zm0,0" transform="translate(-215.641 -176.027)" fill="#ffb531"/>
    </g>
    <path id="Path_16052" data-name="Path 16052" d="M104.039,32.027h2.733V34.76h-2.733Zm0,0" transform="translate(-86.268 -26.534)" fill="#3a9cc9"/>
    <path id="Path_16053" data-name="Path 16053" d="M136.039,32.027h2.733V34.76h-2.733Zm0,0" transform="translate(-112.802 -26.534)" fill="#3a9cc9"/>
    <path id="Path_16054" data-name="Path 16054" d="M168.039,32.027h2.733V34.76h-2.733Zm0,0" transform="translate(-139.336 -26.534)" fill="#3a9cc9"/>
    <path id="Path_16055" data-name="Path 16055" d="M104.039,64.027H150.5V66.76H104.039Zm0,0" transform="translate(-86.268 -53.068)" fill="#3a9cc9"/>
    <path id="Path_16058" data-name="Path 16058" d="M408.039,72.027h2.733v43.728h-2.733Zm0,0" transform="translate(-338.34 -59.702)" fill="#3086cd"/>
    <path id="Path_16060" data-name="Path 16060" d="M81.991,70.86a6.841,6.841,0,0,0-6.833-6.833H73.792V66.76h1.367a4.1,4.1,0,0,1,4.1,4.1l.007,36.9H2.733V70.86a4.1,4.1,0,0,1,4.1-4.1H8.2V64.027H6.833A6.841,6.841,0,0,0,0,70.86v42.362a6.841,6.841,0,0,0,6.833,6.833H32.218l-4.479,12.3H23.231v2.733H58.76v-2.733H54.251l-4.47-12.3H75.167A6.84,6.84,0,0,0,82,113.221v-4.1ZM51.347,132.353H30.653l4.474-12.3H46.879Zm23.821-15.032H6.833a4.1,4.1,0,0,1-4.1-4.1v-2.733H79.266v2.733a4.1,4.1,0,0,1-4.1,4.1Zm0,0" transform="translate(0 -53.068)" fill="#2b75b7"/>
    <path id="Path_16061" data-name="Path 16061" d="M124.181,51.954V6.86A6.841,6.841,0,0,0,117.349.027H70.888A6.841,6.841,0,0,0,64.055,6.86V51.954h2.733V6.86a4.1,4.1,0,0,1,4.1-4.1h46.461a4.1,4.1,0,0,1,4.1,4.1V51.954Zm0,0" transform="translate(-53.113)" fill="#187bcd"/>
    <path id="Path_16062" data-name="Path 16062" d="M104,32.027h2.733V34.76H104Zm0,0" transform="translate(-86.235 -26.534)" fill="#ff806c"/>
    <path id="Path_16063" data-name="Path 16063" d="M136,32.027h2.733V34.76H136Zm0,0" transform="translate(-112.769 -26.534)" fill="#ff806c"/>
    <path id="Path_16064" data-name="Path 16064" d="M168,32.027h2.733V34.76H168Zm0,0" transform="translate(-139.303 -26.534)" fill="#ff806c"/>
    <path id="Path_16065" data-name="Path 16065" d="M150.461,156.326V145.393a1.367,1.367,0,0,0-1.367-1.367H105.367A1.367,1.367,0,0,0,104,145.393v10.932a1.367,1.367,0,0,0,1.367,1.367H128.6v-2.733H106.733v-8.2h41v8.2h-1.367v2.733h2.733A1.367,1.367,0,0,0,150.461,156.326Zm0,0" transform="translate(-86.235 -119.403)" fill="#ff806c"/>
    <path id="Path_16066" data-name="Path 16066" d="M136,176.027h2.733v2.733H136Zm0,0" transform="translate(-112.769 -145.937)" fill="#ff806c"/>
    <path id="Path_16067" data-name="Path 16067" d="M168,176.027h2.733v2.733H168Zm0,0" transform="translate(-139.303 -145.937)" fill="#ff806c"/>
    <path id="Path_16068" data-name="Path 16068" d="M200,176.027h2.733v2.733H200Zm0,0" transform="translate(-165.837 -145.937)" fill="#ff806c"/>
    <path id="Path_16069" data-name="Path 16069" d="M232,176.027h2.733v2.733H232Zm0,0" transform="translate(-192.371 -145.937)" fill="#ff806c"/>
    <path id="Path_16070" data-name="Path 16070" d="M104,64.027h46.461V66.76H104Zm0,0" transform="translate(-86.235 -53.068)" fill="#ff806c"/>
    <path id="Path_16071" data-name="Path 16071" d="M277.592,186.32a1.364,1.364,0,0,0-1.123-.911l-10.932-1.367a1.367,1.367,0,0,0-1.525,1.525l1.367,10.932a1.367,1.367,0,0,0,2.323.8l1.766-1.767,4.5,4.5a1.366,1.366,0,0,0,1.932,0l4.1-4.1A1.367,1.367,0,0,0,280,194l-4.5-4.5,1.767-1.767a1.367,1.367,0,0,0,.326-1.41Zm-.492,8.643-2.167,2.167-4.5-4.5a1.367,1.367,0,0,0-1.932,0l-.757.757-.8-6.416,6.423.8-.757.757a1.367,1.367,0,0,0,0,1.932Zm0,0" transform="translate(-218.906 -152.574)" fill="#187bcd"/>
  </g>
</svg>
