<svg xmlns="http://www.w3.org/2000/svg" width="40.5" height="18.536" viewBox="0 0 40.5 18.536">
  <g id="cars" transform="translate(0 -138.833)">
    <g id="Group_3519" data-name="Group 3519" transform="translate(28.35 150.619)">
      <g id="Group_3518" data-name="Group 3518" transform="translate(0 0)">
        <path id="Path_17643" data-name="Path 17643" d="M361.775,287.834a3.375,3.375,0,1,0,3.375,3.375A3.379,3.379,0,0,0,361.775,287.834Zm0,5.4a2.025,2.025,0,1,1,2.025-2.025A2.028,2.028,0,0,1,361.775,293.234Z" transform="translate(-358.4 -287.834)" fill="#ff806c"/>
      </g>
    </g>
    <g id="Group_3521" data-name="Group 3521" transform="translate(5.4 150.619)">
      <g id="Group_3520" data-name="Group 3520" transform="translate(0 0)">
        <path id="Path_17644" data-name="Path 17644" d="M71.641,287.834a3.375,3.375,0,1,0,3.375,3.375A3.379,3.379,0,0,0,71.641,287.834Zm0,5.4a2.025,2.025,0,1,1,2.025-2.025A2.027,2.027,0,0,1,71.641,293.234Z" transform="translate(-68.266 -287.834)" fill="#ff806c"/>
      </g>
    </g>
    <g id="Group_3523" data-name="Group 3523" transform="translate(0 138.833)">
      <g id="Group_3522" data-name="Group 3522" transform="translate(0 0)">
        <path id="Path_17645" data-name="Path 17645" d="M39.825,150.619v-4.05a.674.674,0,0,0-.462-.641l-3.809-1.27a10.361,10.361,0,0,0-7.763-5.5l-.024,0c-8.046-1.112-14.087.7-17.966,5.4-4.484.065-9.126,1.479-9.126,4.047v2.025a.675.675,0,0,0-.675.675v2.7a.675.675,0,0,0,.675.675h2.7a.675.675,0,0,0,.675-.675,4.725,4.725,0,1,1,9.45,0,.675.675,0,0,0,.675.675h12.15a.675.675,0,0,0,.675-.675,4.725,4.725,0,1,1,9.45,0,.675.675,0,0,0,.675.675h2.7a.675.675,0,0,0,.675-.675v-2.7A.675.675,0,0,0,39.825,150.619Zm-8.742-8.872a9.074,9.074,0,0,1,2.8,2.8h-2.83Zm-8.133-1.564a30.7,30.7,0,0,1,4.62.3,11.214,11.214,0,0,1,2.169.6l-.033,3.459H22.95Zm-1.35.057v4.3H11.625A14.75,14.75,0,0,1,21.6,140.24Zm17.55,13.079H37.763a6.076,6.076,0,0,0-12.076,0H14.813a6.076,6.076,0,0,0-12.076,0H1.35v-1.35a.675.675,0,0,0,.675-.675v-2.025H2.7a.675.675,0,1,0,0-1.35H2.35c.913-.992,3.707-2.025,7.775-2.025H34.99l3.485,1.162v.863H37.8a.675.675,0,1,0,0,1.35h.675v2.025a.675.675,0,0,0,.675.675Z" transform="translate(0 -138.833)" fill="#2b75b7"/>
      </g>
    </g>
  </g>
</svg>
