<svg xmlns="http://www.w3.org/2000/svg" width="28.562" height="24.713" viewBox="0 0 28.562 24.713">
  <g id="Group_4581" data-name="Group 4581" transform="translate(-301 -154.998)">
    <path id="Path_19157" data-name="Path 19157" d="M271.633,210.434v2.248a.446.446,0,1,0,.893,0v-2.267a4.742,4.742,0,0,1,1.218-3.716l4.474-4.54a1.132,1.132,0,0,1,1.561-.062l.043.042a1.146,1.146,0,0,1,0,1.6l-2.79,2.831a.459.459,0,0,0-.1.493.447.447,0,0,0,.412.28c.336,0,.211-.1,3.1-2.963l1.9-1.867v-2.059a.446.446,0,1,0-.893,0v1.676l-.447.44a2,2,0,0,0-3.418-1.05l-4.474,4.54A5.482,5.482,0,0,0,271.633,210.434Z" transform="translate(44.54 -33.68)" fill="#2b75b7"/>
    <path id="Path_19158" data-name="Path 19158" d="M376.043,75.771c-.009-.552-.638-.891-1.084-.891a2.536,2.536,0,0,0-2.486,2.726v4.858a.446.446,0,1,0,.893,0V77.608c.007-1.578,1.381-2.034,1.785-1.748v9.573L368.1,94.6a.459.459,0,0,0-.049.477.446.446,0,0,0,.4.255c.418,0,.024.14,7.587-9.589Z" transform="translate(-46.481 84.357)" fill="#2b75b7"/>
    <path id="Path_19161" data-name="Path 19161" d="M7.992,89.176a.458.458,0,0,0,0-.641L5.2,85.7a1.146,1.146,0,0,1,0-1.6l.043-.042a1.132,1.132,0,0,1,1.561.062l4.474,4.54a4.588,4.588,0,0,1,1.22,3.678c0,3.182,0,2.055,0,2.305a.446.446,0,1,0,.893,0V92.4a5.482,5.482,0,0,0-1.48-4.375l-4.474-4.54a2,2,0,0,0-3.418,1.05L3.57,84.1V77.607a2.535,2.535,0,0,0-2.486-2.723c-.447,0-1.076.339-1.084.891v9.972l7.059,9.437a.442.442,0,0,0,.626.079.458.458,0,0,0,.077-.636L.893,85.436V75.863c.4-.284,1.778.165,1.785,1.746v6.87l1.9,1.87,2.786,2.827a.442.442,0,0,0,.631,0Z" transform="translate(301 84.354)" fill="#2b75b7"/>
    <path id="Path_19164" data-name="Path 19164" d="M162.182,11.893a3.538,3.538,0,0,0-1.593.917.458.458,0,0,0-.006.641.442.442,0,0,0,.631.006,2.648,2.648,0,0,1,3.215-.411.451.451,0,0,0,.448-.783,3.527,3.527,0,0,0-1.567-.481,4.838,4.838,0,0,0-3.346-1.8V8.246a3,3,0,0,0,2.44.017,7.2,7.2,0,0,0,2.832-2.623.459.459,0,0,0,.046-.394A.45.45,0,0,0,165,4.966a7.058,7.058,0,0,0-3.825-.263,4.03,4.03,0,0,0-1.215.661V4.479c.914-.4,1.473-2.215-.115-4.3a.442.442,0,0,0-.711.006c-1.544,2.1-.974,3.9-.067,4.3v.816a4.137,4.137,0,0,0-1.127-.591,7.058,7.058,0,0,0-3.825.263.45.45,0,0,0-.277.279.459.459,0,0,0,.046.394,7.2,7.2,0,0,0,2.832,2.623,3.084,3.084,0,0,0,2.352.03V9.984a4.838,4.838,0,0,0-3.346,1.8,3.526,3.526,0,0,0-1.552.471.455.455,0,0,0,.209.854h.12l.1-.061a2.682,2.682,0,0,1,4.019,2.353.446.446,0,1,0,.893,0,3.621,3.621,0,0,0-2.665-3.505A3.975,3.975,0,0,1,162.182,11.893Zm-.709-6.335a5.135,5.135,0,0,1,2.655.1,5.351,5.351,0,0,1-2.019,1.752C159.829,8.216,159.2,6.365,161.473,5.558Zm-4.46,1.849A5.281,5.281,0,0,1,155,5.655a5.185,5.185,0,0,1,2.653-.1c2.294.813,1.628,2.652-.636,1.849Zm2.048-4.785a3.092,3.092,0,0,1,.44-1.337,3.09,3.09,0,0,1,.462,1.33c.011,1.394-.891,1.406-.9.007Z" transform="translate(155.763 155)" fill="#ff806c"/>
    <ellipse id="Ellipse_226" data-name="Ellipse 226" cx="0.582" cy="0.394" rx="0.582" ry="0.394" transform="translate(314.201 171.549)" fill="#ff806c"/>
  </g>
</svg>
