<svg xmlns="http://www.w3.org/2000/svg" width="13" height="13" viewBox="0 0 13 13">
  <g id="Group_1730" data-name="Group 1730" transform="translate(-430 -457)">
    <g id="Ellipse_119" data-name="Ellipse 119" transform="translate(430 457)" fill="none" stroke="#262626" stroke-width="1">
      <circle cx="6.5" cy="6.5" r="6.5" stroke="none"/>
      <circle cx="6.5" cy="6.5" r="6" fill="none"/>
    </g>
    <g id="info" transform="translate(434.55 458.95)">
      <path id="Path_16021" data-name="Path 16021" d="M34.819,7.658l-.12.49q-.54.213-.861.324a2.272,2.272,0,0,1-.747.112,1.491,1.491,0,0,1-1.016-.319,1.032,1.032,0,0,1-.363-.81,2.864,2.864,0,0,1,.027-.39q.028-.2.088-.45l.45-1.592q.06-.229.1-.433a1.884,1.884,0,0,0,.041-.373.577.577,0,0,0-.126-.425.711.711,0,0,0-.481-.12,1.26,1.26,0,0,0-.358.055c-.122.036-.227.071-.315.1l.12-.491q.442-.18.846-.308a2.529,2.529,0,0,1,.765-.128,1.455,1.455,0,0,1,1,.314,1.041,1.041,0,0,1,.352.815c0,.069-.008.191-.024.365a2.443,2.443,0,0,1-.09.48L33.66,6.464a4.21,4.21,0,0,0-.1.437,2.248,2.248,0,0,0-.044.37.534.534,0,0,0,.141.431.8.8,0,0,0,.49.114,1.415,1.415,0,0,0,.37-.057A2.072,2.072,0,0,0,34.819,7.658ZM34.932,1a.928.928,0,0,1-.313.706A1.066,1.066,0,0,1,33.865,2a1.078,1.078,0,0,1-.758-.292A.926.926,0,0,1,32.79,1a.935.935,0,0,1,.316-.708,1.119,1.119,0,0,1,1.512,0A.937.937,0,0,1,34.932,1Z" transform="translate(-31.139)" fill="#262626"/>
    </g>
  </g>
</svg>
