<svg id="Group_1853" data-name="Group 1853" xmlns="http://www.w3.org/2000/svg" width="22" height="36.056" viewBox="0 0 22 36.056">
  <g id="Group_1850" data-name="Group 1850" transform="translate(0.701 11.343)">
    <path id="Path_16108" data-name="Path 16108" d="M11.053,154.174a1.828,1.828,0,0,1,.083-3.654,1.791,1.791,0,0,1,.268.02" transform="translate(-9.308 -150.52)" fill="#e0b394"/>
    <path id="Path_16109" data-name="Path 16109" d="M247.328,154.174a1.828,1.828,0,0,0-.083-3.654,1.888,1.888,0,0,0-.268.02" transform="translate(-229.067 -150.52)" fill="#e0b394"/>
  </g>
  <path id="Path_16110" data-name="Path 16110" d="M37.087,289.967a5.344,5.344,0,0,1,4.314,5.244v8.27H23.539v-8.27a5.344,5.344,0,0,1,4.314-5.244Z" transform="translate(-21.765 -268.116)" fill="#ff5a59"/>
  <path id="Path_16111" data-name="Path 16111" d="M30.125,289.967H27.853a5.344,5.344,0,0,0-4.314,5.244v8.27h2.272v-8.27A5.344,5.344,0,0,1,30.125,289.967Z" transform="translate(-21.765 -268.116)" fill="#ce3a4c"/>
  <path id="Path_16112" data-name="Path 16112" d="M85.922,291.089c0,.011,0,.021,0,.032a4.981,4.981,0,0,1-9.962,0c0-.011,0-.021,0-.032" transform="translate(-70.237 -269.153)" fill="#e0b394"/>
  <path id="Path_16113" data-name="Path 16113" d="M37.513,57.631,34.3,55.295a5.929,5.929,0,0,1-2.417-5.367l.558-5.772a7.755,7.755,0,0,1,7.719-7.009h0a7.755,7.755,0,0,1,7.719,7.009l.558,5.772a5.93,5.93,0,0,1-2.417,5.367L42.8,57.631A4.5,4.5,0,0,1,37.513,57.631Z" transform="translate(-29.453 -34.347)" fill="#fca"/>
  <path id="Path_16114" data-name="Path 16114" d="M33.888,51.089a3.579,3.579,0,0,0,.833,2.515l3.361,4.13a2.677,2.677,0,0,0,.59.525,4.472,4.472,0,0,1-1.152-.6L34.3,55.319a5.929,5.929,0,0,1-2.416-5.367l.557-5.772a7.753,7.753,0,0,1,7.6-7.007c-2.429.059-5.179,2.348-5.322,4.786Z" transform="translate(-29.459 -34.371)" fill="#f2a077"/>
  <path id="Path_16115" data-name="Path 16115" d="M44.836,18.394s-3.459-4.126-7.913-2.325c-2.222.9-3.761.829-4.91.326l-.079-.037-.074-.034a4.545,4.545,0,0,1-.653-.389c0,.007-.006.014-.009.021-.878,2.252-4.7,2.51-4.7,2.51s-1.715-2.737-.775-4.852c.745-1.677,2.722-3.453,6.086-4.116a15.055,15.055,0,0,1,2.924-.271C39.9,9.228,44.836,12.675,44.836,18.394Z" transform="translate(-23.522 -8.533)" fill="#f9dc6a"/>
  <path id="Path_16116" data-name="Path 16116" d="M31.806,12.825s-4.012,4.205-.607,6.458c-.878,2.252-4.7,2.51-4.7,2.51s-1.715-2.737-.775-4.852C26.465,15.264,28.442,13.489,31.806,12.825Z" transform="translate(-23.522 -11.859)" fill="#e5ac51"/>
  <g id="Group_1851" data-name="Group 1851" transform="translate(1.774 31.526)">
    <rect id="Rectangle_558" data-name="Rectangle 558" width="3.461" height="3.839" transform="translate(14.401)" fill="#fca"/>
    <rect id="Rectangle_559" data-name="Rectangle 559" width="3.46" height="3.839" fill="#fca"/>
  </g>
  <g id="Group_1852" data-name="Group 1852" transform="translate(1.774 31.526)">
    <rect id="Rectangle_560" data-name="Rectangle 560" width="2.272" height="3.839" fill="#e0b394"/>
  </g>
  <path id="Path_16117" data-name="Path 16117" d="M17.671,1.882a.693.693,0,1,0-.761,1.159A7.938,7.938,0,0,1,20.44,8.13a9.844,9.844,0,0,0-1.078-.711,6.969,6.969,0,0,0-6.229-.526c-2.841,1.149-4.246.518-5.055-.057a5.2,5.2,0,0,1-.671-.574.693.693,0,0,0-.981.98c.123.123.246.236.369.344C6.065,8.6,4.357,9.05,3.349,9.194,2.966,8.443,2.228,6.7,2.824,5.362c1.3-2.934,5.327-3.976,8.376-3.976a10.78,10.78,0,0,1,4.192.844A.693.693,0,0,0,15.936.955,12.179,12.179,0,0,0,11.2,0C5.663,0,2.588,2.479,1.557,4.8c-.926,2.082.287,4.554.7,5.289l-.056.581a2.521,2.521,0,0,0-.472,4.893,6.649,6.649,0,0,0,2.7,5.945l.147.107a6.048,6.048,0,0,0-3.5,5.479v8.27a.693.693,0,0,0,.693.693H19.628a.693.693,0,0,0,.693-.693v-8.27a6.01,6.01,0,0,0-1-3.325.693.693,0,1,0-1.157.765,4.628,4.628,0,0,1,.768,2.561v3.738H16.861v-2.6a.693.693,0,1,0-1.387,0v6.436H5.92V28.234a.693.693,0,0,0-1.387,0v2.6H2.459V27.093A4.659,4.659,0,0,1,5.1,22.9a5.664,5.664,0,0,0,.61,1.777.693.693,0,0,0,1.218-.663,4.253,4.253,0,0,1-.38-.967l1.1.8a5.176,5.176,0,0,0,6.1,0l1.1-.8a4.3,4.3,0,0,1-4.15,3.209,4.241,4.241,0,0,1-2.672-.934A.693.693,0,0,0,7.161,26.4,5.674,5.674,0,0,0,16.294,22.9a4.671,4.671,0,0,1,.593.34.693.693,0,1,0,.777-1.148,6.046,6.046,0,0,0-.845-.477l.147-.107a6.648,6.648,0,0,0,2.7-5.945,2.521,2.521,0,0,0-.472-4.893l-.078-.8a.693.693,0,0,0-1.38.133l.545,5.647a5.257,5.257,0,0,1-2.134,4.74l-3.216,2.336a3.794,3.794,0,0,1-4.473,0L5.245,20.385a5.257,5.257,0,0,1-2.135-4.74l.491-5.09c1.062-.16,3.271-.668,4.339-2.186,1.561.793,3.439.729,5.713-.191a5.547,5.547,0,0,1,4.988.426,8.561,8.561,0,0,1,2.134,1.7A.693.693,0,0,0,22,9.86,9.287,9.287,0,0,0,17.671,1.882Zm-.81,30.335h2.074v2.452H16.861Zm-12.327,0v2.452H2.459V32.217ZM20.007,13.169a1.132,1.132,0,0,1-.479.927l-.189-1.961A1.135,1.135,0,0,1,20.007,13.169Zm-18.62,0a1.135,1.135,0,0,1,.669-1.034L1.867,14.1A1.133,1.133,0,0,1,1.387,13.169Z"/>
  <path id="Path_16118" data-name="Path 16118" d="M106.459,218.69a3.194,3.194,0,0,0,5.918,0,.565.565,0,0,0-1.048-.425,2.063,2.063,0,0,1-3.822,0,.565.565,0,0,0-1.048.423Z" transform="translate(-98.398 -201.492)"/>
  <path id="Path_16119" data-name="Path 16119" d="M96.309,168.819a.68.68,0,0,0,.68-.68v-.377a.68.68,0,0,0-1.361,0v.377A.68.68,0,0,0,96.309,168.819Z" transform="translate(-88.423 -154.49)"/>
  <path id="Path_16120" data-name="Path 16120" d="M179.527,168.812a.678.678,0,0,0,.678-.678v-.376a.678.678,0,0,0-1.356,0v.376A.678.678,0,0,0,179.527,168.812Z" transform="translate(-165.371 -154.49)"/>
</svg>
