<svg xmlns="http://www.w3.org/2000/svg" width="28.791" height="25.455" viewBox="0 0 28.791 25.455">
  <g id="Group_3559" data-name="Group 3559" transform="translate(-349.21 -628)">
    <path id="Path_17487" data-name="Path 17487" d="M215.406,253.335a.939.939,0,0,1-.938-.938.791.791,0,0,0-1.582,0,2.52,2.52,0,0,0,5.04,0v-2.43a.791.791,0,1,0-1.582,0v2.43A.939.939,0,0,1,215.406,253.335Z" transform="translate(146.377 398.537)" fill="#aac8e2"/>
    <path id="Path_17488" data-name="Path 17488" d="M256.672,212.749a.791.791,0,1,0,.3-.967A.8.8,0,0,0,256.672,212.749Z" transform="translate(106.109 433.087)" fill="#aac8e2"/>
    <path id="Path_17489" data-name="Path 17489" d="M86.605,15.026h0a.791.791,0,0,0,.791-.791v0c0-.009,0-.063,0-.157a3.151,3.151,0,0,1,3.143-2.988h0A3.147,3.147,0,0,1,93.661,13.8a1.56,1.56,0,0,0,.2.921.789.789,0,0,0,.625.307h0a.791.791,0,0,0,.791-.791v0A4.85,4.85,0,0,1,99.325,9.46v5.184a.791.791,0,1,0,1.582,0V9.458a4.961,4.961,0,0,1,2.686,1.36,4.753,4.753,0,0,1,1.459,3.417.791.791,0,0,0,1.578.081c0-.029.02-.2.033-.491a3.1,3.1,0,0,1,.931-1.806,3.266,3.266,0,0,1,2.281-.931h0a3.151,3.151,0,0,1,3.14,2.952c.005.123.006.192.006.2h0a.791.791,0,0,0,.791.791h0a.791.791,0,0,0,.791-.791v0q0-.1,0-.209a17.34,17.34,0,0,0-1.791-6.871C111.158,3.909,107.636.044,100.239,0H100.1c-4.213,0-7.6,1.262-10.082,3.742-3.874,3.878-4.179,9.4-4.2,10.359,0,.041,0,.082,0,.123v.012A.791.791,0,0,0,86.605,15.026Zm13.511-7.214a6.4,6.4,0,0,0-4.567,1.912c.023-.123.048-.247.075-.373a12.533,12.533,0,0,1,4.539-7.612A12.534,12.534,0,0,1,104.7,9.35c.031.144.059.285.085.426-.029-.03-.058-.06-.087-.089A6.525,6.525,0,0,0,100.116,7.812Zm11.259.013a14.4,14.4,0,0,1,.953,2.365,4.7,4.7,0,0,0-2.451-.684h0a4.838,4.838,0,0,0-3.329,1.328c-.064-.549-.156-1.142-.287-1.764a14.808,14.808,0,0,0-3.729-7.331A11.046,11.046,0,0,1,111.375,7.825ZM91.137,4.86A11.28,11.28,0,0,1,97.8,1.733,14.805,14.805,0,0,0,94.066,9.07c-.128.606-.218,1.184-.282,1.722a4.7,4.7,0,0,0-3.239-1.286h0a4.7,4.7,0,0,0-2.469.7A12.694,12.694,0,0,1,91.137,4.86Z" transform="translate(263.396 628)" fill="#aac8e2"/>
  </g>
</svg>
