<svg id="interface_6_" data-name="interface (6)" xmlns="http://www.w3.org/2000/svg" width="22.669" height="22.669" viewBox="0 0 22.669 22.669">
  <g id="Group_3497" data-name="Group 3497">
    <g id="Group_3496" data-name="Group 3496">
      <path id="Path_17634" data-name="Path 17634" d="M7.828,0H2.622A2.625,2.625,0,0,0,0,2.622V7.828a2.625,2.625,0,0,0,2.622,2.622H7.828a2.625,2.625,0,0,0,2.622-2.622V2.622A2.625,2.625,0,0,0,7.828,0Zm.85,7.828a.851.851,0,0,1-.85.85H2.622a.851.851,0,0,1-.85-.85V2.622a.851.851,0,0,1,.85-.85H7.828a.851.851,0,0,1,.85.85Z" fill="#fff"/>
    </g>
  </g>
  <g id="Group_3499" data-name="Group 3499" transform="translate(12.22)">
    <g id="Group_3498" data-name="Group 3498">
      <path id="Path_17635" data-name="Path 17635" d="M283.793,0h-5.136A2.66,2.66,0,0,0,276,2.657V7.793a2.66,2.66,0,0,0,2.657,2.657h5.136a2.66,2.66,0,0,0,2.657-2.657V2.657A2.66,2.66,0,0,0,283.793,0Zm.886,7.793a.887.887,0,0,1-.886.886h-5.136a.887.887,0,0,1-.886-.886V2.657a.887.887,0,0,1,.886-.886h5.136a.887.887,0,0,1,.886.886Z" transform="translate(-276)" fill="#fff"/>
    </g>
  </g>
  <g id="Group_3501" data-name="Group 3501" transform="translate(0 12.22)">
    <g id="Group_3500" data-name="Group 3500">
      <path id="Path_17636" data-name="Path 17636" d="M7.828,276H2.622A2.625,2.625,0,0,0,0,278.622v5.206a2.625,2.625,0,0,0,2.622,2.622H7.828a2.625,2.625,0,0,0,2.622-2.622v-5.206A2.625,2.625,0,0,0,7.828,276Zm.85,7.828a.851.851,0,0,1-.85.85H2.622a.851.851,0,0,1-.85-.85v-5.206a.851.851,0,0,1,.85-.85H7.828a.851.851,0,0,1,.85.85Z" transform="translate(0 -276)" fill="#fff"/>
    </g>
  </g>
  <g id="Group_3503" data-name="Group 3503" transform="translate(12.22 12.22)">
    <g id="Group_3502" data-name="Group 3502">
      <path id="Path_17637" data-name="Path 17637" d="M283.793,276h-5.136A2.66,2.66,0,0,0,276,278.657v5.136a2.66,2.66,0,0,0,2.657,2.657h5.136a2.66,2.66,0,0,0,2.657-2.657v-5.136A2.66,2.66,0,0,0,283.793,276Zm.886,7.793a.887.887,0,0,1-.886.886h-5.136a.887.887,0,0,1-.886-.886v-5.136a.887.887,0,0,1,.886-.886h5.136a.887.887,0,0,1,.886.886Z" transform="translate(-276 -276)" fill="#fff"/>
    </g>
  </g>
</svg>
