<svg xmlns="http://www.w3.org/2000/svg" width="40.5" height="33.753" viewBox="0 0 40.5 33.753">
  <g id="transport_2_" data-name="transport (2)" transform="translate(0 -0.5)">
    <path id="Path_17660" data-name="Path 17660" d="M39.825,51.2H13.5a2.7,2.7,0,0,0-5.4,0H6.075a.675.675,0,0,0-.675.675v2.7a.675.675,0,0,0,.675.675H6.75v6.957l-4.963,1.86a.675.675,0,0,0-.437.632v4.05H.675A.675.675,0,0,0,0,69.425v5.4a.675.675,0,0,0,.675.675H5.468a3.375,3.375,0,0,0,6.615,0H28.418a3.375,3.375,0,0,0,6.615,0h4.793a.675.675,0,0,0,.675-.675V71.45a.675.675,0,0,0-.675-.675H39.15V55.25h.675a.675.675,0,0,0,.675-.675v-2.7a.675.675,0,0,0-.675-.675ZM10.8,49.85a1.35,1.35,0,0,1,1.35,1.35H9.45A1.35,1.35,0,0,1,10.8,49.85Zm-.945,9.585a.675.675,0,0,0-.945.135L8.1,60.65v-5.4h4.05V62H8.775L9.99,60.38a.675.675,0,0,0-.135-.945ZM1.35,70.1H2.7v4.05H1.35Zm7.425,6.75A2.025,2.025,0,1,1,10.8,74.825,2.025,2.025,0,0,1,8.775,76.85Zm22.95,0a2.025,2.025,0,1,1,2.025-2.025A2.025,2.025,0,0,1,31.725,76.85Zm7.425-2.7H37.8V72.125h1.35ZM37.8,70.775h-.675a.675.675,0,0,0-.675.675v2.7H35.032a3.375,3.375,0,0,0-6.615,0H12.082a3.375,3.375,0,0,0-6.615,0H4.05V69.425a.675.675,0,0,0-.675-.675H2.7V65.168L7.548,63.35h5.277a.675.675,0,0,0,.675-.675V55.25H37.8ZM39.15,53.9H6.75V52.55h32.4Zm0,0" transform="translate(0 -43.95)" fill="#2b75b7"/>
    <path id="Path_17661" data-name="Path 17661" d="M90.7,345.85a1.35,1.35,0,1,1-1.35-1.35A1.35,1.35,0,0,1,90.7,345.85Zm0,0" transform="translate(-80.575 -314.975)" fill="#ff806c"/>
    <path id="Path_17662" data-name="Path 17662" d="M362.7,345.85a1.35,1.35,0,1,1-1.35-1.35A1.35,1.35,0,0,1,362.7,345.85Zm0,0" transform="translate(-329.625 -314.975)" fill="#ff806c"/>
    <path id="Path_17667" data-name="Path 17667" d="M176.037,150.756a.485.485,0,0,0,.109.219,1.671,1.671,0,0,0,.124.14,1.408,1.408,0,0,0,.167.087.686.686,0,0,0,.238.048h20.25a.675.675,0,0,0,.675-.675v-5.4a.675.675,0,0,0-.675-.675h-20.25a.675.675,0,0,0-.675.675v5.4A1.541,1.541,0,0,0,176.037,150.756Zm20.213-.857H181.4v-4.05h14.85Zm-16.2-4.05v4.05h-2.025l1.215-1.62a.675.675,0,0,0-1.08-.81l-.81,1.08v-2.7Zm0,0" transform="translate(-161.15 -131.85)" fill="#2b75b7"/>
    <path id="Path_17668" data-name="Path 17668" d="M120,1.175v1.35a.675.675,0,1,0,1.35,0V1.175a.675.675,0,1,0-1.35,0Zm0,0" transform="translate(-109.875)" fill="#ff806c"/>
    <path id="Path_17669" data-name="Path 17669" d="M72.2,8.7a.675.675,0,0,0,0,.954l1.35,1.35a.675.675,0,0,0,.954-.954L73.155,8.7a.675.675,0,0,0-.954,0Zm0,0" transform="translate(-65.928 -7.328)" fill="#ff806c"/>
    <path id="Path_17670" data-name="Path 17670" d="M153.458,8.788l-1.35,1.35a.675.675,0,1,0,.954.954l1.35-1.35a.675.675,0,0,0-.954-.954Zm0,0" transform="translate(-139.086 -7.415)" fill="#ff806c"/>
    <path id="Path_17671" data-name="Path 17671" d="M147.375,384.5h-2.7a.675.675,0,0,0,0,1.35h2.7a.675.675,0,1,0,0-1.35Zm0,0" transform="translate(-131.85 -351.6)" fill="#ff806c"/>
    <path id="Path_17672" data-name="Path 17672" d="M240.675,48.5a.675.675,0,0,0,0,1.35h2.7a.675.675,0,1,0,0-1.35Zm0,0" transform="translate(-219.75 -43.95)" fill="#ff806c"/>
  </g>
</svg>
