<?xml version="1.0" encoding="utf-8"?>
<!-- Generator: Adobe Illustrator 14.0.0, SVG Export Plug-In . SVG Version: 6.00 Build 43363)  -->
<!DOCTYPE svg PUBLIC "-//W3C//DTD SVG 1.1//EN" "http://www.w3.org/Graphics/SVG/1.1/DTD/svg11.dtd">
<svg version="1.1" id="depreciation" xmlns="http://www.w3.org/2000/svg" xmlns:xlink="http://www.w3.org/1999/xlink" x="0px"
	 y="0px" width="65px" height="65px" viewBox="0 0 65 65" enable-background="new 0 0 65 65" xml:space="preserve">
<g id="burn" transform="translate(-21.53 0.006)">
	
		<linearGradient id="Path_17374_2_" gradientUnits="userSpaceOnUse" x1="35.7942" y1="51.6922" x2="35.7942" y2="50.6932" gradientTransform="matrix(44.4018 0 0 -62.9884 -1540.9478 3257.9832)">
		<stop  offset="0.13" style="stop-color:#00A9ED"/>
		<stop  offset="1" style="stop-color:#65106B"/>
	</linearGradient>
	<path id="Path_17374" fill="url(#Path_17374_2_)" d="M68.499,35.496c-0.426,0.037-0.771,0.359-0.835,0.783
		c-0.452,2.662-1.653,5.141-3.462,7.146c0.749-3.007,0.919-6.13,0.5-9.2c-0.53-3.709-1.926-7.242-4.074-10.312
		c-4.471-6.416-6-11.724-6.5-15.049c-0.345-1.89-0.348-3.826-0.009-5.716c0.115-0.501-0.198-1-0.698-1.115
		c-0.282-0.065-0.579,0.006-0.802,0.19c-4.825,4.149-8.415,9.546-10.375,15.6c-0.343,1.109-0.618,2.238-0.823,3.38
		c-2.941-4.7-8.92-6.639-9.232-6.738c-0.494-0.144-1.011,0.141-1.154,0.634c-0.07,0.239-0.041,0.497,0.082,0.715
		c2.817,4.78,1.6,8.438-0.141,12.387c-0.206,0.466,0.005,1.012,0.472,1.218s1.011-0.005,1.217-0.472l0,0
		c1.616-3.659,2.89-7.335,1.154-11.8c2.575,1.274,6.59,3.925,7.263,8.286c0.097,0.502,0.582,0.83,1.083,0.734
		c0.445-0.086,0.763-0.481,0.75-0.934c-0.007-0.107-0.5-10.184,9.128-19.918c-0.087,3.6,0.791,10.641,7.081,19.657
		c4.328,6.195,5.196,14.17,2.305,21.152c-0.172,0.484,0.082,1.016,0.566,1.187c0.272,0.097,0.574,0.061,0.816-0.097
		c2.51-1.854,4.481-4.342,5.711-7.21c0.115,0.623,0.18,1.255,0.191,1.889c-0.01,11.729-9.512,21.239-21.241,21.257
		c-5.629,0.069-11.022-2.258-14.833-6.4c-3.516-3.953-5.153-9.23-4.492-14.479c0.343-2.773,1.071-5.486,2.164-8.06
		c0.193-0.472-0.032-1.011-0.504-1.204c-0.472-0.194-1.011,0.031-1.205,0.504l0,0c-1.158,2.73-1.928,5.609-2.289,8.553
		c-0.721,5.77,1.083,11.568,4.951,15.91c4.16,4.537,10.054,7.09,16.209,7.021c12.748-0.018,23.076-10.352,23.085-23.1
		c-0.117-1.962-0.489-3.9-1.105-5.768C69.32,35.723,68.925,35.461,68.499,35.496z"/>
	
		<linearGradient id="Path_17375_2_" gradientUnits="userSpaceOnUse" x1="59.8552" y1="17.8695" x2="59.8552" y2="16.8695" gradientTransform="matrix(9.1714 0 0 -9.224 -482.8296 166.8153)">
		<stop  offset="0.13" style="stop-color:#00A9ED"/>
		<stop  offset="1" style="stop-color:#65106B"/>
	</linearGradient>
	<path id="Path_17375" fill="url(#Path_17375_2_)" d="M62.421,7.523h2.766v2.769c0,0.51,0.414,0.923,0.924,0.923
		s0.923-0.414,0.923-0.923V7.523h2.761c0.51,0,0.924-0.414,0.924-0.923s-0.414-0.923-0.924-0.923h-2.766V2.913
		c0-0.51-0.413-0.923-0.923-0.923s-0.923,0.413-0.923,0.923V5.68h-2.767c-0.509,0.029-0.897,0.465-0.868,0.974
		c0.026,0.468,0.4,0.842,0.868,0.869H62.421z"/>
	
		<linearGradient id="Path_17376_2_" gradientUnits="userSpaceOnUse" x1="59.6853" y1="17.8739" x2="59.6853" y2="16.8739" gradientTransform="matrix(9.223 0 0 -9.225 -471.1888 173.106)">
		<stop  offset="0.13" style="stop-color:#00A9ED"/>
		<stop  offset="1" style="stop-color:#65106B"/>
	</linearGradient>
	<path id="Path_17376" fill="url(#Path_17376_2_)" d="M82.98,11.91h-2.767V9.143c0-0.51-0.413-0.923-0.923-0.923
		s-0.923,0.413-0.923,0.923v2.766h-2.766c-0.51,0-0.924,0.413-0.924,0.923s0.414,0.923,0.924,0.923h2.765v2.767
		c0,0.51,0.413,0.923,0.923,0.923s0.924-0.413,0.924-0.923v-2.767h2.766c0.51,0,0.923-0.414,0.923-0.923S83.489,11.91,82.98,11.91
		L82.98,11.91L82.98,11.91z"/>
	
		<linearGradient id="Path_17377_2_" gradientUnits="userSpaceOnUse" x1="59.8552" y1="17.8695" x2="59.8552" y2="16.8695" gradientTransform="matrix(9.1714 0 0 -9.224 -478.9484 181.7608)">
		<stop  offset="0.13" style="stop-color:#00A9ED"/>
		<stop  offset="1" style="stop-color:#65106B"/>
	</linearGradient>
	<path id="Path_17377" fill="url(#Path_17377_2_)" d="M73.727,20.621h-2.766v-2.769c0-0.51-0.413-0.923-0.923-0.923
		s-0.923,0.413-0.923,0.923v2.766H66.35c-0.51,0-0.924,0.413-0.924,0.923s0.414,0.923,0.924,0.923h2.766v2.766
		c0,0.51,0.413,0.923,0.923,0.923s0.923-0.413,0.923-0.923l0,0v-2.766h2.766c0.51-0.029,0.898-0.465,0.869-0.974
		C74.57,21.022,74.196,20.648,73.727,20.621z"/>
	
		<linearGradient id="Path_17378_2_" gradientUnits="userSpaceOnUse" x1="47.8884" y1="40.6629" x2="47.8884" y2="39.6629" gradientTransform="matrix(15.15 0 0 -21.7146 -677.7319 922.5851)">
		<stop  offset="0.13" style="stop-color:#00A9ED"/>
		<stop  offset="1" style="stop-color:#65106B"/>
	</linearGradient>
	<path id="Path_17378" fill="url(#Path_17378_2_)" d="M50.106,45.9c0.271,0.432,0.841,0.561,1.272,0.29
		c0.416-0.261,0.554-0.802,0.315-1.23c-1.593-2.691-3.1-4.856-3.162-4.947c-0.302-0.418-0.886-0.513-1.304-0.21
		c-0.081,0.059-0.151,0.129-0.21,0.21c-0.7,1-6.818,9.894-6.818,13.746c-0.003,4.184,3.385,7.578,7.568,7.581
		c4.184,0.004,7.578-3.385,7.582-7.568c0-0.004,0-0.008,0-0.013c-0.17-1.729-0.698-3.403-1.55-4.916
		c-0.246-0.447-0.807-0.611-1.254-0.366c-0.415,0.227-0.591,0.73-0.409,1.166c0.73,1.264,1.194,2.663,1.364,4.112
		c0,3.164-2.565,5.729-5.729,5.729c-3.164,0-5.729-2.565-5.729-5.729c0-2.442,3.628-8.411,5.727-11.572
		C48.36,43.076,49.225,44.417,50.106,45.9z"/>
</g>
<g id="burn_1_" transform="translate(-21.53 0.006)">
	
		<linearGradient id="Path_17374_3_" gradientUnits="userSpaceOnUse" x1="35.7942" y1="51.7088" x2="35.7942" y2="50.7088" gradientTransform="matrix(44.4018 0 0 -62.9884 -1540.9478 3257.9832)">
		<stop  offset="0.13" style="stop-color:#00A9ED"/>
		<stop  offset="1" style="stop-color:#65106B"/>
	</linearGradient>
	<path id="Path_17374_1_" fill="url(#Path_17374_3_)" d="M68.499,34.496c-0.426,0.037-0.771,0.359-0.835,0.783
		c-0.452,2.662-1.653,5.141-3.462,7.146c0.749-3.007,0.919-6.13,0.5-9.2c-0.53-3.709-1.926-7.242-4.074-10.312
		c-4.471-6.416-6-11.724-6.5-15.049c-0.345-1.89-0.348-3.826-0.009-5.716c0.115-0.501-0.198-1-0.698-1.115
		c-0.282-0.065-0.579,0.006-0.802,0.19c-4.825,4.149-8.415,9.546-10.375,15.6c-0.343,1.109-0.618,2.238-0.823,3.38
		c-2.941-4.7-8.92-6.639-9.232-6.738c-0.494-0.144-1.011,0.141-1.154,0.634c-0.07,0.239-0.041,0.497,0.082,0.715
		c2.817,4.78,1.6,8.438-0.141,12.387c-0.206,0.466,0.005,1.012,0.472,1.218s1.011-0.005,1.217-0.472l0,0
		c1.616-3.659,2.89-7.335,1.154-11.8c2.575,1.274,6.59,3.925,7.263,8.286c0.097,0.502,0.582,0.83,1.083,0.734
		c0.445-0.086,0.763-0.481,0.75-0.934c-0.007-0.107-0.5-10.184,9.128-19.918c-0.087,3.6,0.791,10.641,7.081,19.657
		c4.328,6.195,5.196,14.17,2.305,21.152c-0.172,0.484,0.082,1.016,0.566,1.187c0.272,0.097,0.574,0.061,0.816-0.097
		c2.51-1.854,4.481-4.342,5.711-7.21c0.115,0.623,0.18,1.255,0.191,1.889c-0.01,11.729-9.512,21.239-21.241,21.257
		c-5.629,0.069-11.022-2.258-14.833-6.4c-3.516-3.953-5.153-9.23-4.492-14.479c0.343-2.773,1.071-5.486,2.164-8.06
		c0.193-0.472-0.032-1.011-0.504-1.205c-0.472-0.193-1.011,0.032-1.205,0.504l0,0c-1.158,2.73-1.928,5.609-2.289,8.553
		c-0.721,5.77,1.083,11.568,4.951,15.91c4.16,4.537,10.054,7.09,16.209,7.021c12.748-0.018,23.076-10.352,23.085-23.1
		c-0.117-1.962-0.489-3.9-1.105-5.768C69.32,34.723,68.925,34.461,68.499,34.496z"/>
	
		<linearGradient id="Path_17375_3_" gradientUnits="userSpaceOnUse" x1="59.8552" y1="17.9779" x2="59.8552" y2="16.9779" gradientTransform="matrix(9.1714 0 0 -9.224 -482.8296 166.8153)">
		<stop  offset="0.13" style="stop-color:#00A9ED"/>
		<stop  offset="1" style="stop-color:#65106B"/>
	</linearGradient>
	<path id="Path_17375_1_" fill="url(#Path_17375_3_)" d="M62.421,6.523h2.766v2.769c0,0.51,0.414,0.923,0.924,0.923
		s0.923-0.414,0.923-0.923V6.523h2.761c0.51,0,0.924-0.414,0.924-0.923s-0.414-0.923-0.924-0.923h-2.766V1.913
		c0-0.51-0.413-0.923-0.923-0.923s-0.923,0.413-0.923,0.923V4.68h-2.767c-0.509,0.029-0.897,0.465-0.868,0.974
		c0.026,0.468,0.4,0.842,0.868,0.869H62.421z"/>
	
		<linearGradient id="Path_17376_3_" gradientUnits="userSpaceOnUse" x1="59.6853" y1="17.9823" x2="59.6853" y2="16.9823" gradientTransform="matrix(9.223 0 0 -9.225 -471.1888 173.106)">
		<stop  offset="0.13" style="stop-color:#00A9ED"/>
		<stop  offset="1" style="stop-color:#65106B"/>
	</linearGradient>
	<path id="Path_17376_1_" fill="url(#Path_17376_3_)" d="M82.98,10.91h-2.767V8.143c0-0.51-0.413-0.923-0.923-0.923
		s-0.923,0.413-0.923,0.923v2.766h-2.766c-0.51,0-0.924,0.413-0.924,0.923s0.414,0.923,0.924,0.923h2.765v2.767
		c0,0.51,0.413,0.923,0.923,0.923s0.924-0.413,0.924-0.923v-2.767h2.766c0.51,0,0.923-0.414,0.923-0.923S83.489,10.91,82.98,10.91
		L82.98,10.91L82.98,10.91z"/>
	
		<linearGradient id="Path_17377_3_" gradientUnits="userSpaceOnUse" x1="59.8552" y1="17.9779" x2="59.8552" y2="16.9779" gradientTransform="matrix(9.1714 0 0 -9.224 -478.9484 181.7608)">
		<stop  offset="0.13" style="stop-color:#00A9ED"/>
		<stop  offset="1" style="stop-color:#65106B"/>
	</linearGradient>
	<path id="Path_17377_1_" fill="url(#Path_17377_3_)" d="M73.727,19.621h-2.766v-2.769c0-0.51-0.413-0.923-0.923-0.923
		s-0.923,0.413-0.923,0.923v2.766H66.35c-0.51,0-0.924,0.413-0.924,0.923s0.414,0.923,0.924,0.923h2.766v2.766
		c0,0.51,0.413,0.923,0.923,0.923s0.923-0.413,0.923-0.923l0,0v-2.766h2.766c0.51-0.029,0.898-0.465,0.869-0.974
		C74.57,20.022,74.196,19.648,73.727,19.621z"/>
	
		<linearGradient id="Path_17378_3_" gradientUnits="userSpaceOnUse" x1="47.8884" y1="40.7088" x2="47.8884" y2="39.7088" gradientTransform="matrix(15.15 0 0 -21.7146 -677.7319 922.5851)">
		<stop  offset="0.13" style="stop-color:#00A9ED"/>
		<stop  offset="1" style="stop-color:#65106B"/>
	</linearGradient>
	<path id="Path_17378_1_" fill="url(#Path_17378_3_)" d="M50.106,44.9c0.271,0.432,0.841,0.561,1.272,0.29
		c0.416-0.261,0.554-0.802,0.315-1.23c-1.593-2.691-3.1-4.856-3.162-4.947c-0.302-0.418-0.886-0.513-1.304-0.21
		c-0.081,0.059-0.151,0.129-0.21,0.21c-0.7,1-6.818,9.894-6.818,13.746c-0.003,4.184,3.385,7.578,7.568,7.581
		c4.184,0.004,7.578-3.385,7.582-7.568c0-0.004,0-0.008,0-0.013c-0.17-1.729-0.698-3.403-1.55-4.916
		c-0.246-0.447-0.807-0.611-1.254-0.366c-0.415,0.227-0.591,0.73-0.409,1.166c0.73,1.264,1.194,2.663,1.364,4.112
		c0,3.164-2.565,5.729-5.729,5.729c-3.164,0-5.729-2.565-5.729-5.729c0-2.442,3.628-8.411,5.727-11.572
		C48.36,42.076,49.225,43.417,50.106,44.9z"/>
</g>
</svg>
