<svg xmlns="http://www.w3.org/2000/svg" width="32.015" height="25.969" viewBox="0 0 32.015 25.969">
  <g id="tractor" transform="translate(-23.62 -67.51)">
    <path id="Path_14120" data-name="Path 14120" d="M384.634,338.23a2.514,2.514,0,1,0,2.514,2.514A2.514,2.514,0,0,0,384.634,338.23Zm0,4.2a1.688,1.688,0,1,1,1.688-1.688A1.688,1.688,0,0,1,384.634,342.432Z" transform="translate(-333.804 -252.071)" fill="#ff806c"/>
    <path id="Path_14121" data-name="Path 14121" d="M69.941,275.22a4.312,4.312,0,1,0,4.312,4.312A4.311,4.311,0,0,0,69.941,275.22Zm0,7.8a3.485,3.485,0,1,1,3.486-3.485A3.485,3.485,0,0,1,69.941,283.017Z" transform="translate(-39.116 -193.402)" fill="#ff806c"/>
    <path id="Path_14122" data-name="Path 14122" d="M101.161,308.76a2,2,0,1,0,2,2,2,2,0,0,0-2-2Zm0,3.176a1.175,1.175,0,1,1,1.174-1.175A1.175,1.175,0,0,1,101.161,311.936Z" transform="translate(-70.336 -224.631)" fill="#2b75b7"/>
    <path id="Path_14123" data-name="Path 14123" d="M55.366,87.071l-.165-.408a.944.944,0,0,0-.541-.528.944.944,0,0,0-.276-.7l-.311-.311A.93.93,0,0,0,54,85.052h.012a.413.413,0,0,0,.406-.337l1.117-5.958a.413.413,0,0,0-.029-.246l-.532-1.179a.415.415,0,0,0-.056-.091,1.04,1.04,0,0,0-.775-.383l-3.94-.125V71.27a.413.413,0,0,0-.413-.413h-.47V69.209a.617.617,0,0,1,.346-.557l.282-.14a.413.413,0,1,0-.368-.74l-.281.14a1.438,1.438,0,0,0-.806,1.3v1.647h-.47a.413.413,0,0,0-.413.413v5.38a6.436,6.436,0,0,1-2.2-.429,15.239,15.239,0,0,1-1.721-.87l-.494-.273a.413.413,0,0,0-.491.07l-1.221,1.218-1.068-1.13.816-.766a.413.413,0,1,0-.566-.6l-2.133,2a.413.413,0,1,0,.566.6l.714-.671L40.9,76.949l-1.5,1.493a.413.413,0,0,0-.041.538l1.669,2.263H39.163v-.515a.413.413,0,0,0-.2-.353l-.785-.477V78.56a1.522,1.522,0,0,0-1.521-1.521h-.789a.472.472,0,0,1-.445-.318l-.849-2.463c0-.013-.009-.025-.015-.037a1.107,1.107,0,0,0-2.094.667l.463,2.359a8.66,8.66,0,0,0-1.885-.208H28.091V68.7a1.192,1.192,0,1,0-2.383,0v8.337H24.033a.413.413,0,0,0-.413.413v1.78a.413.413,0,0,0,.413.413H24.3a2.2,2.2,0,0,1,2.016,1.323,1.233,1.233,0,0,0-.193.164l-.515.54a1.237,1.237,0,0,0-.34.918,1.237,1.237,0,0,0-.688.7l-.271.694a1.238,1.238,0,0,0,.048,1.009,1.237,1.237,0,0,0-.39.931l.018.746a1.237,1.237,0,0,0,.409.889,1.236,1.236,0,0,0,.006.979l.3.683a1.239,1.239,0,0,0,.747.679,1.239,1.239,0,0,0,.383.934l.54.514a1.237,1.237,0,0,0,.919.341,1.236,1.236,0,0,0,.7.688l.7.272a1.239,1.239,0,0,0,1.008-.049,1.239,1.239,0,0,0,.9.391h.029l.746-.018a1.237,1.237,0,0,0,.889-.409,1.239,1.239,0,0,0,.979-.006l.684-.3a1.241,1.241,0,0,0,.678-.748,1.228,1.228,0,0,0,.934-.383l.516-.54a1.239,1.239,0,0,0,.339-.918,1.238,1.238,0,0,0,.189-.1H43.5a.413.413,0,0,0,.333-.168l1.641-2.23h.792a.94.94,0,0,0,.049.554l.014.033a.944.944,0,0,0-.3.693v.439a.943.943,0,0,0,.273.663.939.939,0,0,0,0,.719l.165.406a.94.94,0,0,0,.508.516l.033.013q0,.018,0,.035a.94.94,0,0,0,.276.669l.311.311a.945.945,0,0,0,.663.276.945.945,0,0,0,.506.511l.4.171a.94.94,0,0,0,.724.005l.033-.014a.944.944,0,0,0,.694.3h.439a.944.944,0,0,0,.664-.273.943.943,0,0,0,.718,0l.407-.165a.94.94,0,0,0,.516-.509l.013-.033a.944.944,0,0,0,.7-.276l.311-.311a.945.945,0,0,0,.276-.663.945.945,0,0,0,.511-.506l.171-.4a.94.94,0,0,0,.005-.724l-.014-.032a.944.944,0,0,0,.3-.694v-.439a.944.944,0,0,0-.273-.664A.943.943,0,0,0,55.366,87.071Zm-1.427-4.3h-3.1l-.051-.1V82.1h3.278Zm-.155.827-.117.624H52.652l-.152-.064a.94.94,0,0,0-.724,0l-.032.014a.944.944,0,0,0-.3-.217l-.181-.352Zm.437-2.329H50.788V80.6h3.559Zm.282-1.5H50.788v-.659a.016.016,0,0,1,.017-.017h3.824Zm-6.068-8.087h.94v5.023l-.94-.03ZM33.553,74.4a.281.281,0,0,1,.248.15l.841,2.44a1.3,1.3,0,0,0,1.227.875h.789a.7.7,0,0,1,.694.694v.835L35.558,78.3A8.682,8.682,0,0,0,33.82,77.5l-.543-2.765a.269.269,0,0,1,0-.051.28.28,0,0,1,.28-.279Zm-7.019-5.7a.365.365,0,0,1,.624-.257.36.36,0,0,1,.106.257v8.337h-.73ZM36.809,86.56a.42.42,0,0,1-.25.2.413.413,0,0,0-.129.73.415.415,0,0,1,.143.483l-.272.695a.4.4,0,0,1-.12.166l.261.32h0l-.264-.319a.419.419,0,0,1-.282.094.409.409,0,0,0-.368.191.413.413,0,0,0-.017.414.414.414,0,0,1-.065.478l-.516.54a.413.413,0,0,1-.5.076.413.413,0,0,0-.607.425.415.415,0,0,1-.241.443l-.683.3a.414.414,0,0,1-.472-.1.413.413,0,0,0-.7.156.413.413,0,0,1-.384.292l-.746.018a.411.411,0,0,1-.406-.3.413.413,0,0,0-.73-.129.415.415,0,0,1-.484.142l-.7-.273a.413.413,0,0,1-.261-.405.413.413,0,0,0-.6-.386.414.414,0,0,1-.479-.065l-.54-.515a.414.414,0,0,1-.076-.5.413.413,0,0,0-.425-.607.414.414,0,0,1-.442-.241l-.3-.684a.413.413,0,0,1,.1-.472.413.413,0,0,0-.155-.7.414.414,0,0,1-.293-.384l-.018-.747a.415.415,0,0,1,.3-.406.413.413,0,0,0,.127-.73.413.413,0,0,1-.141-.483l.271-.694a.412.412,0,0,1,.406-.261.413.413,0,0,0,.386-.6.415.415,0,0,1,.065-.479l.515-.54a.409.409,0,0,1,.2-.115.418.418,0,0,1,.3.039.413.413,0,0,0,.607-.426.413.413,0,0,1,.242-.441l.683-.3a.414.414,0,0,1,.472.1.413.413,0,0,0,.7-.155.414.414,0,0,1,.385-.293l.746-.018a.411.411,0,0,1,.406.3.413.413,0,0,0,.729.128.414.414,0,0,1,.484-.142l.694.271a.415.415,0,0,1,.262.407.413.413,0,0,0,.605.385.414.414,0,0,1,.479.065l.54.514a.414.414,0,0,1,.076.5.413.413,0,0,0,.425.607.414.414,0,0,1,.443.242l.3.676,0,.007.006.013,0,.01a.417.417,0,0,1-.112.448.413.413,0,0,0,.155.7.415.415,0,0,1,.293.385l.018.745A.4.4,0,0,1,36.809,86.56Zm-.6-4.2a1.24,1.24,0,0,0-.382-.934l-.54-.515a1.239,1.239,0,0,0-.918-.34,1.238,1.238,0,0,0-.7-.688l-.694-.272a1.238,1.238,0,0,0-1.009.048,1.239,1.239,0,0,0-.932-.39l-.745.018a1.236,1.236,0,0,0-.89.409,1.237,1.237,0,0,0-.979.006l-.683.3a1.235,1.235,0,0,0-.649.67,3.026,3.026,0,0,0-2.64-1.85v-.957h6.6a7.875,7.875,0,0,1,4.084,1.145l2.422,1.473.215-.353h0l-.215.354.785.477v2.564H37.165l-.212-.484A1.239,1.239,0,0,0,36.2,82.361Zm7.085,6.383H37.16l.183-.466a1.24,1.24,0,0,0-.05-1.009,1.245,1.245,0,0,0,.091-.1h.544a.413.413,0,1,0,0-.827h-.244v-.009l-.018-.746a1.238,1.238,0,0,0-.408-.889,1.232,1.232,0,0,0,.09-.352h1.4a.413.413,0,0,0,.413-.413V82.07h2.475l.411.557-1.53,3.719h-1.3a.413.413,0,1,0,0,.827h5.232Zm3.358-2.4H41.413l1.381-3.358,4.474.083h.008a.413.413,0,0,0,.008-.827l-4.553-.085-2.5-3.383,2.833-2.824.219.122a15.815,15.815,0,0,0,1.818.916,7.329,7.329,0,0,0,2.593.491l6.417.2a.215.215,0,0,1,.132.05l.241.534H50.805a.844.844,0,0,0-.844.843v3.234l-1.338-.051a.413.413,0,0,0-.032.826l1.526.059.359.7a.944.944,0,0,0-.53.262.943.943,0,0,0-.719,0l-.407.165a.944.944,0,0,0-.528.542.947.947,0,0,0-.705.276l-.309.31a.942.942,0,0,0-.277.663A.947.947,0,0,0,46.648,86.346Zm8.161,2.547a.122.122,0,0,1-.12.12h-.147a.413.413,0,0,0-.16.795l.133.056a.122.122,0,0,1,.064.158l-.171.4a.122.122,0,0,1-.158.064.413.413,0,0,0-.452.673.122.122,0,0,1,0,.169l-.311.311a.122.122,0,0,1-.17,0l-.1-.1a.413.413,0,0,0-.675.448l.055.134a.122.122,0,0,1-.066.157l-.408.165a.121.121,0,0,1-.155-.065.413.413,0,0,0-.8.154.122.122,0,0,1-.121.12H50.61a.122.122,0,0,1-.12-.12v-.147a.413.413,0,0,0-.794-.161l-.057.135a.122.122,0,0,1-.158.064l-.4-.171a.122.122,0,0,1-.064-.157.413.413,0,0,0-.673-.453.122.122,0,0,1-.169,0l-.31-.311a.122.122,0,0,1,0-.17l.1-.1a.413.413,0,0,0-.448-.675l-.135.055a.121.121,0,0,1-.156-.067l-.165-.407a.12.12,0,0,1,.065-.155.413.413,0,0,0-.154-.8.122.122,0,0,1-.12-.12v-.439a.122.122,0,0,1,.12-.12h.146a.413.413,0,0,0,.162-.794l-.135-.058a.122.122,0,0,1-.064-.157l.171-.4h0a.121.121,0,0,1,.156-.064.413.413,0,0,0,.454-.672.121.121,0,0,1,0-.17l.309-.31a.122.122,0,0,1,.171,0l.1.1a.413.413,0,0,0,.674-.449l-.055-.135a.122.122,0,0,1,.066-.156l.407-.165a.122.122,0,0,1,.156.066.413.413,0,0,0,.8-.156.121.121,0,0,1,.12-.119h.439l.022,0a.122.122,0,0,1,.1.118v.146a.413.413,0,0,0,.794.16l.056-.134a.122.122,0,0,1,.157-.064l.113.048a.411.411,0,0,0,.18.076l.113.048a.121.121,0,0,1,.064.156.413.413,0,0,0,.672.453.122.122,0,0,1,.169,0l.311.311a.121.121,0,0,1,0,.17l-.1.1a.413.413,0,0,0,.449.674l.134-.055a.122.122,0,0,1,.157.065l.165.408a.122.122,0,0,1-.066.156.413.413,0,0,0,.156.8.121.121,0,0,1,.119.12Z" fill="#2b75b7"/>
  </g>
</svg>
