<?xml version="1.0" encoding="utf-8"?>
<!-- Generator: Adobe Illustrator 14.0.0, SVG Export Plug-In . SVG Version: 6.00 Build 43363)  -->
<!DOCTYPE svg PUBLIC "-//W3C//DTD SVG 1.1//EN" "http://www.w3.org/Graphics/SVG/1.1/DTD/svg11.dtd">
<svg version="1.1" id="Layer_1" xmlns="http://www.w3.org/2000/svg" xmlns:xlink="http://www.w3.org/1999/xlink" x="0px" y="0px"
	 width="40.5px" height="33.753px" viewBox="0 0 40.5 33.753" enable-background="new 0 0 40.5 33.753" xml:space="preserve">
<g>
	<g>
		<path fill="#2B75B7" d="M27.069,26.765c0,2.106,1.713,3.818,3.818,3.818c2.106,0,3.819-1.712,3.819-3.818
			c0-2.105-1.713-3.819-3.819-3.819C28.782,22.946,27.069,24.66,27.069,26.765z M28.342,26.765c0-1.404,1.143-2.546,2.546-2.546
			c1.404,0,2.547,1.142,2.547,2.546c0,1.403-1.143,2.547-2.547,2.547C29.484,29.312,28.342,28.168,28.342,26.765z"/>
	</g>
</g>
<g>
	<g>
		<path fill="#2B75B7" d="M5.611,26.765c0,2.106,1.714,3.818,3.819,3.818c2.104,0,3.818-1.712,3.818-3.818
			c0-2.105-1.714-3.819-3.818-3.819C7.325,22.946,5.611,24.66,5.611,26.765z M6.885,26.765c0-1.404,1.142-2.546,2.546-2.546
			s2.545,1.142,2.545,2.546c0,1.403-1.141,2.547-2.545,2.547S6.885,28.168,6.885,26.765z"/>
	</g>
</g>
<g>
	<g>
		<path fill="#2B75B7" d="M1.611,19.765v7c0,0.352,0.285,0.637,0.636,0.637h3.818v-1.273H2.885v-6.177l5.439-8.461h6.017v14.638
			h-1.909v1.273h2.545c0.353,0,0.637-0.285,0.637-0.637V10.854c0-0.351-0.284-0.636-0.637-0.636H7.976
			c-0.217,0-0.418,0.11-0.535,0.292l-5.729,8.91C1.646,19.523,1.611,19.642,1.611,19.765z"/>
	</g>
</g>
<g>
	<g>
		<path fill="#2B75B7" d="M11.794,18.492H2.885v1.273h9.547c0.351,0,0.636-0.285,0.636-0.638v-5.728
			c0-0.352-0.285-0.637-0.636-0.637H6.703v1.273h5.091V18.492L11.794,18.492z"/>
	</g>
</g>
<g>
	<g>
		<path fill="#2B75B7" d="M14.341,6.399v20.366c0,0.352,0.284,0.637,0.636,0.637h12.729v-1.273H15.613V7.035h22.912v19.093H34.07
			v1.273h5.092c0.351,0,0.636-0.285,0.636-0.637V6.399c0-0.352-0.285-0.637-0.636-0.637H14.977
			C14.625,5.762,14.341,6.047,14.341,6.399z"/>
	</g>
</g>
<g>
	<g>
		<rect x="35.344" y="23.583" fill="#2B75B7" width="3.818" height="1.271"/>
	</g>
</g>
<g>
	<g>
		<rect x="15.613" y="23.583" fill="#2B75B7" width="10.819" height="1.271"/>
	</g>
</g>
<g>
	<g>
		<rect x="2.247" y="23.583" fill="#2B75B7" width="2.547" height="1.271"/>
	</g>
</g>
<g>
	<g>
		<rect x="14.977" y="8.308" fill="#2B75B7" width="22.276" height="1.272"/>
	</g>
</g>
<g>
	<g>
		<rect x="28.342" y="3.216" fill="#FF806C" width="8.911" height="1.273"/>
	</g>
</g>
<g>
	<g>
		<rect x="38.525" y="3.216" fill="#FF806C" width="1.272" height="1.273"/>
	</g>
</g>
<path id="Path_17661_1_" fill="#FF806C" d="M32.238,26.764c0,0.746-0.604,1.352-1.351,1.352c-0.745,0-1.35-0.605-1.35-1.352
	c0-0.744,0.604-1.35,1.35-1.35C31.634,25.415,32.238,26.02,32.238,26.764L32.238,26.764z"/>
<path id="Path_17661_2_" fill="#FF806C" d="M10.78,26.764c0,0.746-0.604,1.352-1.351,1.352c-0.745,0-1.35-0.605-1.35-1.352
	c0-0.744,0.604-1.35,1.35-1.35C10.176,25.415,10.78,26.02,10.78,26.764L10.78,26.764z"/>
<polyline fill="#FF806C" points="16.58,10.988 36.515,10.988 36.515,15.813 16.58,15.813 "/>
<rect x="16.58" y="16.864" fill="#2B75B7" width="9.332" height="4.853"/>
<rect x="27.069" y="16.864" fill="#2B75B7" width="9.332" height="4.853"/>
</svg>
