<svg xmlns="http://www.w3.org/2000/svg" width="81.382" height="74.766" viewBox="0 0 81.382 74.766">
  <g id="Group_2217" data-name="Group 2217" transform="translate(12885.019 -4796.021)">
    <path id="Subtraction_19" data-name="Subtraction 19" d="M4.251,4.638A4.223,4.223,0,0,1,1.245,3.393,4.224,4.224,0,0,1,0,.386C0,.258.006.128.017,0H1.053A3.221,3.221,0,1,0,7.471.386,3.251,3.251,0,0,0,7.449,0H8.486C8.5.129,8.5.259,8.5.386A4.223,4.223,0,0,1,7.258,3.393,4.223,4.223,0,0,1,4.251,4.638Zm0-1.8a2.432,2.432,0,0,1-1.73-.717A2.432,2.432,0,0,1,1.8.386,2.488,2.488,0,0,1,1.834,0H2.839A1.464,1.464,0,1,0,5.664,0H6.669A2.488,2.488,0,0,1,6.7.386a2.433,2.433,0,0,1-.717,1.731,2.433,2.433,0,0,1-1.732.717Z" transform="translate(-12812.646 4866.148)" fill="#ff806c"/>
    <path id="Subtraction_25" data-name="Subtraction 25" d="M26.013,71.8H25.35l.538-3.328.046-.1H40.912a3.577,3.577,0,0,0,3.126-2.507l.042-.075L55.723,46.259H51.838l-2.728,4.806v.015h0l-6.63,11.675a3.72,3.72,0,0,1-3.769,2.407H27.363l.04-.088-11.58-.134.293-1.651v-.028l2.158-12.147a.125.125,0,0,1,.014-.07l.852-4.8H15.925l-2.9,17.639a.142.142,0,0,1-.012.07l-.159.965L1.476,64.783a2.611,2.611,0,0,1-.82-.836A7.473,7.473,0,0,1,.347,58.53a12.284,12.284,0,0,1,4.866-7.553,14.089,14.089,0,0,1,7.912-2.641l.342-2.079H5.408a3.943,3.943,0,0,1-3.462-1.48A6.649,6.649,0,0,1,.459,40.5V34.05a6.106,6.106,0,0,1,1.205-3.978,3.943,3.943,0,0,1,3.108-1.439H7.238a4.39,4.39,0,0,1,3.174,2.118c.639.774,1.061,1.264,1.533,1.31H35a10.544,10.544,0,0,1,4.924-4.2,16.81,16.81,0,0,1,6.815-1.38,17.021,17.021,0,0,1,5.579.911,10.508,10.508,0,0,1,3.632,2.092V24.539l-4.812-.361a3.188,3.188,0,0,1-2.483-1.4,5.259,5.259,0,0,1-.947-3.263,4.961,4.961,0,0,1,1.069-3.069,2.985,2.985,0,0,1,2.457-1.164h.02l6.063.028-1.547-4.525H50.548c-1.442,0-2.612-1.5-2.612-3.353V3.377A4,4,0,0,1,48.908.7,1.991,1.991,0,0,1,50.363,0a1.723,1.723,0,0,1,.4.046l6.011,1.437a3.236,3.236,0,0,1,2.395,3.322V7.437a3.724,3.724,0,0,1-1.017,2.644l1.832,5.358A4.193,4.193,0,0,1,62.6,18.168a5.917,5.917,0,0,1,.436,2.322v5.275a4.871,4.871,0,0,1,2.1-.485h4.219c1.492,0,2.7,1.554,2.7,3.469V37.47c0,1.916-1.212,3.468-2.7,3.469H65.134a4.875,4.875,0,0,1-2.1-.48v4.752l1.24,3.4a14.052,14.052,0,0,1,2.765-.276,13.77,13.77,0,0,1,6.339,1.548,15.611,15.611,0,0,1,7.462,9.2,7.477,7.477,0,0,1,.054,5.337,2.979,2.979,0,0,1-1.457,1.416v.049l-11.556-.108-5.364-14.7c-.018-.044-.034-.088-.05-.137l-1.72-4.721a1.924,1.924,0,0,1-.113-.653V20.479a2.137,2.137,0,0,0-.155-.862c-.02-.046-.038-.093-.056-.142a1.43,1.43,0,0,0-1.27-1.073l-7.906-.036h0a1.126,1.126,0,0,0-1.127,1.243,1.665,1.665,0,0,0,.328,1.077.99.99,0,0,0,.842.411l5.941.446a1.438,1.438,0,0,1,1.131,1.548V46.251l7.287,19.527-11.313-.106a2.962,2.962,0,0,1-1.031-1.112,7.258,7.258,0,0,1-.052-5.368,15.2,15.2,0,0,1,4.52-7.344l-.91-2.435L46.007,67.625a5.967,5.967,0,0,1-5.1,3.828H26.083c-.02.114-.04.23-.062.346ZM67.056,51.423a12.289,12.289,0,0,0-1.71.119l4.187,11.494h8.51c.434,0,.751-.111.846-.3a4.025,4.025,0,0,0-.251-2.42c-2.079-5.728-6.668-9.25-11.582-8.889ZM58.833,54.66a12.181,12.181,0,0,0-3.319,5.569,4.368,4.368,0,0,0-.239,2.549.944.944,0,0,0,.8.258h5.883ZM39.3,58.437a2.637,2.637,0,0,0-2.3,2.758,3.853,3.853,0,0,0,.06.893h1.625c1.119,0,1.258-.129,1.828-1.138l.679-1.194a2.141,2.141,0,0,0-1.9-1.318ZM36.157,46.251,26.762,59.278a13.216,13.216,0,0,1,.438,2.809h7.434A7.971,7.971,0,0,1,34.608,61c.16-3.177,2.214-5.649,4.693-5.649a4.2,4.2,0,0,1,3.357,1.829l3.088-5.44H40.181a1.6,1.6,0,0,1,0-3.1H47.5l1.366-2.407ZM20.285,53.691,18.8,62.059h6a11.965,11.965,0,0,0-.52-2.525h0a11.9,11.9,0,0,0-3.992-5.843Zm-7.671-2.255C7.67,51.748,3.573,55,2.665,59.329c-.4,1.873-.213,2.58-.143,2.678a.513.513,0,0,0,.279.057h8.066ZM21.6,46.251l-.765,4.308a13.884,13.884,0,0,1,4.822,5.7l7.221-10.011H21.6ZM46.718,29.58c-4.533,0-8.414,1.759-9.891,4.481v9.108H55.944V34.847c0-2.678-2.986-4.019-4.269-4.47a15.121,15.121,0,0,0-4.95-.8ZM4.783,31.728a1.838,1.838,0,0,0-1.467.588,2.73,2.73,0,0,0-.452,1.733V40.5a2.4,2.4,0,0,0,2.548,2.667H34.431V35.149H11.845A4.667,4.667,0,0,1,8.753,32.99c-.637-.774-1.053-1.264-1.517-1.267H5C4.929,31.728,4.855,31.728,4.783,31.728Zm60.351-3.353a3.143,3.143,0,0,0-2.1.841v7.811a3.14,3.14,0,0,0,2.1.841h4.219a.356.356,0,0,0,.3-.387V28.754a.356.356,0,0,0-.3-.387ZM50.419,3.1h0a.57.57,0,0,0-.08.276V7.437a.235.235,0,0,0,.2.258h6.015a.246.246,0,0,0,.211-.258V4.806c0-.088-.187-.232-.428-.291Z" transform="translate(-12885 4796.021)" fill="#2b75b7"/>
    <path id="Subtraction_24" data-name="Subtraction 24" d="M4.251,4.638A4.223,4.223,0,0,1,1.245,3.393,4.224,4.224,0,0,1,0,.386C0,.258.006.128.017,0H1.053A3.221,3.221,0,1,0,7.471.386,3.251,3.251,0,0,0,7.449,0H8.486C8.5.129,8.5.259,8.5.386A4.223,4.223,0,0,1,7.258,3.393,4.223,4.223,0,0,1,4.251,4.638Zm0-1.8a2.432,2.432,0,0,1-1.73-.717A2.432,2.432,0,0,1,1.8.386,2.488,2.488,0,0,1,1.834,0H2.839A1.464,1.464,0,1,0,5.664,0H6.669A2.488,2.488,0,0,1,6.7.386a2.433,2.433,0,0,1-.717,1.731,2.433,2.433,0,0,1-1.732.717Z" transform="translate(-12884.49 4866.148)" fill="#ff806c"/>
  </g>
</svg>
