<svg id="calendar" xmlns="http://www.w3.org/2000/svg" width="15.5" height="15.5" viewBox="0 0 15.5 15.5">
  <g id="Group_198" data-name="Group 198">
    <g id="Group_197" data-name="Group 197">
      <path id="Path_424" data-name="Path 424" d="M13.684,1.211h-.727V0H11.746V1.211H3.754V0H2.543V1.211H1.816A1.818,1.818,0,0,0,0,3.027V13.684A1.818,1.818,0,0,0,1.816,15.5H13.684A1.818,1.818,0,0,0,15.5,13.684V3.027A1.818,1.818,0,0,0,13.684,1.211Zm.605,12.473a.606.606,0,0,1-.605.605H1.816a.606.606,0,0,1-.605-.605V5.691H14.289Zm0-9.2H1.211V3.027a.606.606,0,0,1,.605-.605h.727V3.633H3.754V2.422h7.992V3.633h1.211V2.422h.727a.606.606,0,0,1,.605.605Z" fill="#959595"/>
    </g>
  </g>
  <g id="Group_200" data-name="Group 200" transform="translate(2.301 6.963)">
    <g id="Group_199" data-name="Group 199">
      <rect id="Rectangle_368" data-name="Rectangle 368" width="1.211" height="1.211" fill="#959595"/>
    </g>
  </g>
  <g id="Group_202" data-name="Group 202" transform="translate(4.723 6.963)">
    <g id="Group_201" data-name="Group 201">
      <rect id="Rectangle_369" data-name="Rectangle 369" width="1.211" height="1.211" fill="#959595"/>
    </g>
  </g>
  <g id="Group_204" data-name="Group 204" transform="translate(7.145 6.963)">
    <g id="Group_203" data-name="Group 203">
      <rect id="Rectangle_370" data-name="Rectangle 370" width="1.211" height="1.211" fill="#959595"/>
    </g>
  </g>
  <g id="Group_206" data-name="Group 206" transform="translate(9.566 6.963)">
    <g id="Group_205" data-name="Group 205">
      <rect id="Rectangle_371" data-name="Rectangle 371" width="1.211" height="1.211" fill="#959595"/>
    </g>
  </g>
  <g id="Group_208" data-name="Group 208" transform="translate(11.988 6.963)">
    <g id="Group_207" data-name="Group 207">
      <rect id="Rectangle_372" data-name="Rectangle 372" width="1.211" height="1.211" fill="#959595"/>
    </g>
  </g>
  <g id="Group_210" data-name="Group 210" transform="translate(2.301 9.385)">
    <g id="Group_209" data-name="Group 209">
      <rect id="Rectangle_373" data-name="Rectangle 373" width="1.211" height="1.211" fill="#959595"/>
    </g>
  </g>
  <g id="Group_212" data-name="Group 212" transform="translate(4.723 9.385)">
    <g id="Group_211" data-name="Group 211">
      <rect id="Rectangle_374" data-name="Rectangle 374" width="1.211" height="1.211" fill="#959595"/>
    </g>
  </g>
  <g id="Group_214" data-name="Group 214" transform="translate(7.145 9.385)">
    <g id="Group_213" data-name="Group 213">
      <rect id="Rectangle_375" data-name="Rectangle 375" width="1.211" height="1.211" fill="#959595"/>
    </g>
  </g>
  <g id="Group_216" data-name="Group 216" transform="translate(9.566 9.385)">
    <g id="Group_215" data-name="Group 215">
      <rect id="Rectangle_376" data-name="Rectangle 376" width="1.211" height="1.211" fill="#959595"/>
    </g>
  </g>
  <g id="Group_218" data-name="Group 218" transform="translate(2.301 11.807)">
    <g id="Group_217" data-name="Group 217">
      <rect id="Rectangle_377" data-name="Rectangle 377" width="1.211" height="1.211" fill="#959595"/>
    </g>
  </g>
  <g id="Group_220" data-name="Group 220" transform="translate(4.723 11.807)">
    <g id="Group_219" data-name="Group 219">
      <rect id="Rectangle_378" data-name="Rectangle 378" width="1.211" height="1.211" fill="#959595"/>
    </g>
  </g>
  <g id="Group_222" data-name="Group 222" transform="translate(7.145 11.807)">
    <g id="Group_221" data-name="Group 221">
      <rect id="Rectangle_379" data-name="Rectangle 379" width="1.211" height="1.211" fill="#959595"/>
    </g>
  </g>
  <g id="Group_224" data-name="Group 224" transform="translate(9.566 11.807)">
    <g id="Group_223" data-name="Group 223">
      <rect id="Rectangle_380" data-name="Rectangle 380" width="1.211" height="1.211" fill="#959595"/>
    </g>
  </g>
  <g id="Group_226" data-name="Group 226" transform="translate(11.988 9.385)">
    <g id="Group_225" data-name="Group 225">
      <rect id="Rectangle_381" data-name="Rectangle 381" width="1.211" height="1.211" fill="#959595"/>
    </g>
  </g>
</svg>
