<svg id="cigarette" xmlns="http://www.w3.org/2000/svg" width="46.613" height="42.95" viewBox="0 0 46.613 42.95">
  <path id="Path_15155" data-name="Path 15155" d="M297.447,76.52c-.41-2.619-.314-5.85-4.414-7.958-4.062-2.089-2.147-6.558,1.393-6.442s5.928-2.206,2.674-5.223c-2.946-2.732.539-8.16,5.285-9.162a.821.821,0,0,1,.945,1.064c-1.272,3.92,3.328,6.807,4.909,8.387,1.741,1.741,3.54,4.614-.348,6.544s-5.455,4.715-2.9,7.733-.406,5.455-3.076,6.152Zm0,0" transform="translate(-264.279 -43.373)" fill="#d0efff"/>
  <path id="Path_15156" data-name="Path 15156" d="M266.461,20.5a.441.441,0,0,0,.728.383,4.5,4.5,0,0,0,.589-5.408,7.063,7.063,0,0,1,.122-6.832.76.76,0,0,0-.824-1.132c-2.437.578-4.557,2.292-3.82,6.057.742,3.791,3.59,3.752,3.205,6.932Zm0,0" transform="translate(-239.154 -6.809)" fill="#d0efff"/>
  <path id="Path_15157" data-name="Path 15157" d="M41.373,362.2h-29.7A4.172,4.172,0,0,1,7.5,358.031v-1.878a4.172,4.172,0,0,1,4.172-4.172h29.7a4.172,4.172,0,0,1,4.172,4.172v1.878A4.172,4.172,0,0,1,41.373,362.2Zm0,0" transform="translate(-6.818 -319.936)" fill="#fcf2d0"/>
  <path id="Path_15158" data-name="Path 15158" d="M41.373,362.2h-29.7A4.172,4.172,0,0,1,7.5,358.031v-1.878a4.172,4.172,0,0,1,4.172-4.172h29.7a4.172,4.172,0,0,1,4.172,4.172v1.878A4.172,4.172,0,0,1,41.373,362.2Zm0,0" transform="translate(-6.818 -319.936)" fill="#d0efff"/>
  <path id="Path_15159" data-name="Path 15159" d="M12.387,351.984" transform="translate(-7.532 -319.939)" fill="#f6e3a3"/>
  <path id="Path_15160" data-name="Path 15160" d="M18.365,357.1a13.584,13.584,0,0,1,1-5.111H11.672A4.172,4.172,0,0,0,7.5,356.156v1.878a4.172,4.172,0,0,0,4.172,4.172h7.689A13.586,13.586,0,0,1,18.365,357.1Zm0,0" transform="translate(-6.817 -319.939)" fill="#1167b1"/>
  <path id="Path_15161" data-name="Path 15161" d="M349.967,358.031v-1.878a4.172,4.172,0,0,0-4.172-4.172h-2.488a15.062,15.062,0,0,0,0,10.222H345.8A4.172,4.172,0,0,0,349.967,358.031Zm0,0" transform="translate(-311.241 -319.936)" fill="#00b5ef"/>
  <path id="Path_15162" data-name="Path 15162" d="M85.253,377.742a.648.648,0,1,1-.648-.648A.647.647,0,0,1,85.253,377.742Zm0,0" transform="translate(-76.314 -342.763)" fill="#2a9df4"/>
  <path id="Path_15163" data-name="Path 15163" d="M37.2,412.89a.648.648,0,1,1-.648-.648A.648.648,0,0,1,37.2,412.89Zm0,0" transform="translate(-32.634 -374.711)" fill="#2a9df4"/>
  <path id="Path_15164" data-name="Path 15164" d="M85.253,429.308a.648.648,0,1,1-.648-.648A.647.647,0,0,1,85.253,429.308Zm0,0" transform="translate(-76.314 -389.634)" fill="#2a9df4"/>
  <path id="Path_15172" data-name="Path 15172" d="M25.5,10.776A3.133,3.133,0,0,1,26.63,13.61a1.113,1.113,0,0,0,.593,1.127,1.126,1.126,0,0,0,.526.131,1.112,1.112,0,0,0,.738-.281,4.559,4.559,0,0,0,1.358-2.574,5.5,5.5,0,0,0-.621-3.673A6.361,6.361,0,0,1,29.33,2.19,1.443,1.443,0,0,0,27.765.04c-1.63.386-5.316,1.828-4.333,6.853A7.6,7.6,0,0,0,25.5,10.776ZM28.08,1.368a.088.088,0,0,1,.022,0,.068.068,0,0,1,.056.033.066.066,0,0,1,0,.083,7.77,7.77,0,0,0-.137,7.513c.861,1.578-.777,1.7-1.5.878-.705-.8-1.869-7.692,1.557-8.5ZM44.442,13.332c-.294-.294-.665-.613-1.095-.982C41.425,10.7,38.791,8.441,39.7,5.638a1.5,1.5,0,0,0-.313-1.48,1.483,1.483,0,0,0-1.423-.464,9.033,9.033,0,0,0-2.913,1.187.683.683,0,0,0,.723,1.159,7.67,7.67,0,0,1,2.472-1.01.123.123,0,0,1,.125.041.141.141,0,0,1,.03.145c-1.191,3.668,2.094,6.486,4.056,8.17.409.35.761.653,1.019.911.742.741,1.955,2.175,1.747,3.445-.125.761-.769,1.435-1.916,2-2.545,1.263-4.082,2.856-4.444,4.607a4.842,4.842,0,0,0,1.325,4.179,2.582,2.582,0,0,1,.744,2.371A4.209,4.209,0,0,1,38.4,33.261a4.849,4.849,0,0,0-3.847-1.9h-.941a8.034,8.034,0,0,0-4.547-6.78c-1.468-.755-2.155-1.932-1.839-3.15a2.8,2.8,0,0,1,2.9-2c2.288.076,4.143-.792,4.726-2.208.305-.742.508-2.275-1.565-4.2-1.519-1.409-.78-3.583.314-5.017a.683.683,0,0,0-1.086-.828c-1.9,2.487-1.959,5.174-.157,6.846,1.089,1.01,1.526,1.96,1.231,2.677-.358.871-1.732,1.418-3.418,1.363a4.166,4.166,0,0,0-4.264,3.024,3.622,3.622,0,0,0,.274,2.563A5.023,5.023,0,0,0,28.442,25.8a6.606,6.606,0,0,1,3.792,5.566H4.855A4.861,4.861,0,0,0,0,36.217V38.1a4.835,4.835,0,0,0,2.667,4.335.683.683,0,1,0,.616-1.219A3.476,3.476,0,0,1,1.366,38.1V36.217a3.493,3.493,0,0,1,3.489-3.489h6.709a14.373,14.373,0,0,0,0,8.857H6.07a.683.683,0,1,0,0,1.366H34.555A4.86,4.86,0,0,0,39.41,38.1V36.217a4.831,4.831,0,0,0-.333-1.763,7.321,7.321,0,0,0,1.655-1.009,4.412,4.412,0,0,0,1.516-2.178,3.848,3.848,0,0,0-1.017-3.617,3.56,3.56,0,0,1-1.03-3.02c.274-1.325,1.558-2.591,3.714-3.66a4.285,4.285,0,0,0,2.657-3.007c.291-1.777-1-3.5-2.129-4.631ZM13.01,41.585a12.973,12.973,0,0,1,0-8.857H31.126a15.755,15.755,0,0,0,0,8.857ZM38.044,38.1a3.493,3.493,0,0,1-3.489,3.489h-2a14.387,14.387,0,0,1,0-8.857h2a3.493,3.493,0,0,1,3.489,3.489Z" transform="translate(0 -0.001)"/>
</svg>
