<svg id="download" xmlns="http://www.w3.org/2000/svg" width="13.393" height="14.286" viewBox="0 0 13.393 14.286">
  <g id="Group_1624" data-name="Group 1624" transform="translate(3.125)">
    <g id="Group_1623" data-name="Group 1623" transform="translate(0)">
      <path id="Path_15896" data-name="Path 15896" d="M135.1,6.512a.445.445,0,0,0-.406-.262h-1.786V.446A.447.447,0,0,0,132.462,0h-1.786a.447.447,0,0,0-.446.446v5.8h-1.786a.446.446,0,0,0-.336.74l3.125,3.571a.445.445,0,0,0,.671,0L135.03,6.99A.445.445,0,0,0,135.1,6.512Z" transform="translate(-127.998)" fill="#fff"/>
    </g>
  </g>
  <g id="Group_1626" data-name="Group 1626" transform="translate(0 9.821)">
    <g id="Group_1625" data-name="Group 1625" transform="translate(0)">
      <path id="Path_15897" data-name="Path 15897" d="M27.607,352v2.679H17.786V352H16v3.571a.893.893,0,0,0,.893.893H28.5a.892.892,0,0,0,.893-.893V352Z" transform="translate(-16 -352)" fill="#fff"/>
    </g>
  </g>
</svg>
