<svg xmlns="http://www.w3.org/2000/svg" width="37.062" height="24.322" viewBox="0 0 37.062 24.322">
  <g id="transport_1_" data-name="transport (1)" transform="translate(0 -88.003)">
    <path id="Path_17653" data-name="Path 17653" d="M9.416,221.485a4.639,4.639,0,0,0-4.6,4.054H3.481a2.319,2.319,0,0,1-2.316-2.316v-.941H2.829a.579.579,0,1,0,0-1.158H1.164V220.11H3.553a.579.579,0,1,0,0-1.158H1.164v-2.7a.579.579,0,1,0-1.158,0v6.973A3.478,3.478,0,0,0,3.481,226.7h1.34a4.632,4.632,0,1,0,4.6-5.212Zm0,8.107a3.475,3.475,0,1,1,3.475-3.475A3.478,3.478,0,0,1,9.416,229.592Z" transform="translate(-0.005 -118.426)" fill="#2b75b7"/>
    <path id="Path_17654" data-name="Path 17654" d="M115.164,344a1.158,1.158,0,1,0,1.158,1.158A1.16,1.16,0,0,0,115.164,344Z" transform="translate(-105.753 -237.469)" fill="#ff806c"/>
    <path id="Path_17655" data-name="Path 17655" d="M357.164,344a1.158,1.158,0,1,0,1.158,1.158A1.16,1.16,0,0,0,357.164,344Z" transform="translate(-330.236 -237.469)" fill="#ff806c"/>
    <path id="Path_17656" data-name="Path 17656" d="M37.068,98.065A10.37,10.37,0,0,0,26.7,88H3.481A3.479,3.479,0,0,0,.006,91.478v1.737a.579.579,0,0,0,1.158,0V91.478a2.319,2.319,0,0,1,2.316-2.316H26.7a9.168,9.168,0,0,1,5.075,1.52H27.434a3,3,0,0,0-2.92,2.364l-.424,1.993a2.985,2.985,0,0,0,2.919,3.606h8.9v2.389H34.028a1.737,1.737,0,1,0,0,3.475H35.91v.29a2.319,2.319,0,0,1-2.316,2.316H31.529a4.631,4.631,0,0,0-9.191,0H16.076a.579.579,0,1,0,0,1.158h6.263a4.631,4.631,0,0,0,9.191,0h2.064a3.479,3.479,0,0,0,3.475-3.475C37.068,104.073,37.068,98.085,37.068,98.065Zm-10.134,13.1a3.475,3.475,0,1,1,3.475-3.475A3.478,3.478,0,0,1,26.934,111.167ZM25.223,95.279l.424-1.993a1.835,1.835,0,0,1,1.787-1.446h5.761a9.236,9.236,0,0,1,2.672,5.646H27.01A1.826,1.826,0,0,1,25.223,95.279Zm8.8,8.07a.579.579,0,0,1,0-1.158H35.91v1.158Z" transform="translate(-0.005 0)" fill="#2b75b7"/>
    <path id="Path_17657" data-name="Path 17657" d="M326.585,262.161h1.158a.579.579,0,1,0,0-1.158h-1.158a.579.579,0,1,0,0,1.158Z" transform="translate(-302.407 -160.477)" fill="#ff806c"/>
    <path id="Path_17658" data-name="Path 17658" d="M.1,184.89a.579.579,0,1,0,.26-.856.579.579,0,0,0-.26.856Z" transform="translate(0 -89.037)" fill="#ff806c"/>
  </g>
</svg>
