<?xml version="1.0" encoding="utf-8"?>
<!-- Generator: Adobe Illustrator 14.0.0, SVG Export Plug-In . SVG Version: 6.00 Build 43363)  -->
<!DOCTYPE svg PUBLIC "-//W3C//DTD SVG 1.1//EN" "http://www.w3.org/Graphics/SVG/1.1/DTD/svg11.dtd">
<svg version="1.1" id="Layer_1" xmlns="http://www.w3.org/2000/svg" xmlns:xlink="http://www.w3.org/1999/xlink" x="0px" y="0px"
	 width="17.652px" height="17.652px" viewBox="0 0 17.652 17.652" enable-background="new 0 0 17.652 17.652" xml:space="preserve">
<g>
	<g>
		<path fill="#1167B1" d="M13.172,3.38c0.209,0,0.379-0.17,0.379-0.379V1.804c0-0.457-0.371-0.829-0.828-0.829H4.706
			c-0.101,0-0.197,0.04-0.269,0.111l-3.139,3.14c-0.071,0.07-0.111,0.167-0.111,0.268v11.353c0,0.457,0.372,0.829,0.829,0.829
			h10.706c0.457,0,0.828-0.372,0.828-0.829v-5.785c0-0.209-0.17-0.379-0.379-0.379s-0.379,0.17-0.379,0.379v5.785
			c0,0.039-0.031,0.071-0.07,0.071H2.017c-0.039,0-0.071-0.032-0.071-0.071V4.873h2.312c0.456,0,0.828-0.371,0.828-0.828V1.734
			h7.637c0.039,0,0.07,0.031,0.07,0.07v1.196C12.793,3.21,12.963,3.38,13.172,3.38z M4.327,4.045c0,0.039-0.032,0.07-0.07,0.07
			H2.482l1.846-1.846V4.045z"/>
	</g>
</g>
<g>
	<g>
		<path fill="#1167B1" d="M16.09,4.054l-0.447-0.445c-0.498-0.501-1.313-0.501-1.813,0l-3.539,3.538H4.152
			c-0.209,0-0.379,0.17-0.379,0.38c0,0.209,0.17,0.379,0.379,0.379h5.381l-2.281,2.28H4.152c-0.209,0-0.379,0.17-0.379,0.379
			s0.17,0.379,0.379,0.379h2.343L6.489,10.95c-0.047,0.047-0.08,0.104-0.098,0.167l-0.585,2.108H4.152
			c-0.209,0-0.379,0.169-0.379,0.379c0,0.209,0.17,0.378,0.379,0.378h1.942c0,0,0.083-0.009,0.095-0.012
			c0.002-0.001,2.392-0.664,2.392-0.664c0.063-0.017,0.121-0.051,0.167-0.098l7.342-7.341C16.59,5.368,16.59,4.554,16.09,4.054z
			 M6.638,13.059l0.31-1.114l0.805,0.806L6.638,13.059z M8.479,12.406l-1.187-1.188l6.061-6.061l1.186,1.188L8.479,12.406z
			 M15.552,5.332l-0.477,0.478l-1.188-1.188l0.479-0.478c0.203-0.204,0.535-0.204,0.74,0l0.445,0.446
			C15.758,4.795,15.758,5.127,15.552,5.332z"/>
	</g>
</g>
</svg>
