<svg xmlns="http://www.w3.org/2000/svg" width="40.5" height="32.314" viewBox="0 0 40.5 32.314">
  <g id="Group_2217" data-name="Group 2217" transform="translate(12885 -4796.021)">
    <path id="Subtraction_19" data-name="Subtraction 19" d="M6.425,7.01A6.382,6.382,0,0,1,1.882,5.128,6.384,6.384,0,0,1,0,.584C0,.39.009.193.026,0H1.592a4.868,4.868,0,1,0,9.7.584A4.914,4.914,0,0,0,11.258,0h1.567c.017.195.026.391.026.584a6.382,6.382,0,0,1-1.882,4.544A6.382,6.382,0,0,1,6.425,7.01Zm0-2.726A3.675,3.675,0,0,1,3.81,3.2,3.676,3.676,0,0,1,2.726.584,3.761,3.761,0,0,1,2.772,0H4.291A2.213,2.213,0,1,0,8.56,0h1.519a3.76,3.76,0,0,1,.046.584A3.677,3.677,0,0,1,9.042,3.2,3.677,3.677,0,0,1,6.425,4.284Z" transform="translate(-12858.13 4821.325)" fill="#ff806c"/>
    <path id="Subtraction_25" data-name="Subtraction 25" d="M12.938,27.835h-.33l.268-1.29.023-.039,1.778,0h5.677a1.762,1.762,0,0,0,1.556-.972l.021-.029,5.795-7.572H25.792l-1.358,1.863,0,.006,0,0,0,0,0,0-3.3,4.526a1.944,1.944,0,0,1-1.876.933H13.61l.02-.034-5.764-.052.146-.64,0-.011,1.074-4.709c0-.009,0-.018.007-.027l.424-1.862h-1.6L6.472,24.764c0,.009,0,.018-.006.027l-.079.374L.725,25.114a1.193,1.193,0,0,1-.408-.324,2.313,2.313,0,0,1-.154-2.1,4.853,4.853,0,0,1,2.422-2.928,8.414,8.414,0,0,1,3.938-1.024l.17-.806H2.682A2.253,2.253,0,0,1,.219,15.7V13.2a2.027,2.027,0,0,1,.6-1.542A2.231,2.231,0,0,1,2.366,11.1c.057,0,.113,0,.166,0l1.061,0a2.291,2.291,0,0,1,1.58.821c.318.3.528.49.763.508H17.411A5.125,5.125,0,0,1,19.862,10.8a10.452,10.452,0,0,1,3.392-.535,10.683,10.683,0,0,1,2.777.353,5.74,5.74,0,0,1,1.808.811V9.513l-2.395-.14a1.733,1.733,0,0,1-1.707-1.808,1.68,1.68,0,0,1,1.755-1.641h.01l3.018.011-.77-1.754h-2.6a1.3,1.3,0,0,1-1.3-1.3V1.309A1.366,1.366,0,0,1,24.334.27,1.122,1.122,0,0,1,25.058,0a1.091,1.091,0,0,1,.2.018L28.25.575a1.342,1.342,0,0,1,1.192,1.288V2.883a1.289,1.289,0,0,1-.506,1.025l.912,2.077a1.9,1.9,0,0,1,1.3,1.058,1.857,1.857,0,0,1,.217.9V9.988A3.007,3.007,0,0,1,32.41,9.8h2.1a1.347,1.347,0,0,1,1.346,1.345v3.381a1.347,1.347,0,0,1-1.346,1.345h-2.1a3.011,3.011,0,0,1-1.043-.186v1.842l.617,1.319a8.919,8.919,0,0,1,1.376-.107,8.466,8.466,0,0,1,3.155.6,6.671,6.671,0,0,1,3.714,3.566,2.306,2.306,0,0,1,.027,2.069,1.384,1.384,0,0,1-.725.549l0,.019L33.779,25.5l-2.67-5.7c-.009-.017-.017-.034-.025-.053l-.856-1.83a.6.6,0,0,1-.056-.253V7.939a.669.669,0,0,0-.077-.334c-.01-.018-.019-.036-.028-.055a.693.693,0,0,0-.632-.416L25.5,7.12h0c-.492,0-.556.337-.561.482a.553.553,0,0,0,.582.577l2.957.173a.6.6,0,0,1,.563.6V17.93L32.668,25.5l-5.631-.041a1.326,1.326,0,0,1-.513-.431,2.242,2.242,0,0,1-.026-2.081A5.9,5.9,0,0,1,28.748,20.1l-.453-.944L22.89,26.216A3,3,0,0,1,20.353,27.7h-4.68l-2.7,0c-.01.044-.02.089-.031.134Zm20.429-7.9a7.827,7.827,0,0,0-.851.046L34.6,24.437h4.236c.216,0,.374-.043.421-.116a1.246,1.246,0,0,0-.125-.938A5.983,5.983,0,0,0,33.367,19.937ZM29.274,21.19a4.676,4.676,0,0,0-1.652,2.159c-.218.6-.178.9-.119.988a.56.56,0,0,0,.4.1h2.928L29.274,21.19Zm-9.72,1.464a1.145,1.145,0,0,0-1.143,1.069,1.171,1.171,0,0,0,.03.346h.809c.557,0,.626-.05.91-.441l.338-.463A1.1,1.1,0,0,0,19.553,22.654ZM17.987,17.93l-4.676,5.05a4.09,4.09,0,0,1,.218,1.089h3.7a2.41,2.41,0,0,1-.013-.421,2.341,2.341,0,0,1,2.336-2.19,2.3,2.3,0,0,1,1.671.709l1.537-2.109h-2.77a.6.6,0,0,1,0-1.2h3.642l.68-.933Zm-7.9,2.884-.74,3.244H11.97l.363,0a3.763,3.763,0,0,0-.259-.979v0l0,0A4.783,4.783,0,0,0,10.087,20.814ZM6.269,19.94c-2.461.121-4.5,1.38-4.952,3.06-.2.726-.106,1-.071,1.038a.318.318,0,0,0,.139.022H5.4Zm4.475-2.01L10.363,19.6a6.012,6.012,0,0,1,2.4,2.21l3.594-3.881H10.744Zm12.5-6.463c-2.256,0-4.188.682-4.923,1.737v3.531h9.515V13.509c0-1.038-1.486-1.558-2.125-1.733A9.495,9.495,0,0,0,23.247,11.467ZM2.371,12.3a1.064,1.064,0,0,0-.73.228.889.889,0,0,0-.225.672v2.5c0,.648.474,1.034,1.268,1.034H17.128V13.626H5.886a2.408,2.408,0,0,1-1.539-.837c-.317-.3-.524-.49-.755-.491l-1.073,0H2.48C2.444,12.3,2.407,12.3,2.371,12.3ZM32.41,11a1.828,1.828,0,0,0-1.043.326v3.028a1.826,1.826,0,0,0,1.043.326h2.1a.152.152,0,0,0,.151-.15V11.147a.152.152,0,0,0-.151-.15ZM25.086,1.2h0a.187.187,0,0,0-.04.107V2.883a.1.1,0,0,0,.1.1H28.14a.106.106,0,0,0,.105-.1V1.863c0-.034-.093-.09-.213-.113L25.086,1.2Z" transform="translate(-12885 4796.021)" fill="#2b75b7"/>
    <path id="Subtraction_24" data-name="Subtraction 24" d="M6.425,7.01A6.382,6.382,0,0,1,1.882,5.128,6.384,6.384,0,0,1,0,.584C0,.39.009.193.026,0H1.592a4.868,4.868,0,1,0,9.7.584A4.914,4.914,0,0,0,11.258,0h1.567c.017.195.026.391.026.584a6.382,6.382,0,0,1-1.882,4.544A6.382,6.382,0,0,1,6.425,7.01Zm0-2.726A3.675,3.675,0,0,1,3.81,3.2,3.676,3.676,0,0,1,2.726.584,3.761,3.761,0,0,1,2.772,0H4.291A2.213,2.213,0,1,0,8.56,0h1.519a3.76,3.76,0,0,1,.046.584A3.677,3.677,0,0,1,9.042,3.2,3.677,3.677,0,0,1,6.425,4.284Z" transform="translate(-12884.221 4821.325)" fill="#ff806c"/>
  </g>
</svg>
