<svg id="wine_1_" data-name="wine (1)" xmlns="http://www.w3.org/2000/svg" width="41.419" height="43.053" viewBox="0 0 41.419 43.053">
  <path id="Path_15173" data-name="Path 15173" d="M130.6,58.768q.612.5,1.268.931a11.978,11.978,0,0,0,2.7.685,1.845,1.845,0,0,0-.541-1.269l-5.4-5.4a2.452,2.452,0,0,1,3.468-3.468l1.213,1.213a25.923,25.923,0,0,0,9.06,5.879q.643.246,1.269.525a12,12,0,0,0,4.349-7.407l2.118-12.73-9.761-5.635-9.82,8.079a12,12,0,0,0,.077,18.6Zm0,0" transform="translate(-115.587 -29.395)" fill="#d0efff"/>
  <path id="Path_15174" data-name="Path 15174" d="M134.868,188.829a14.122,14.122,0,0,1-8.856-1.894,15.056,15.056,0,0,0-6.557-1.95l-3.7,1.364c-.309,3.941.922,8.79,4,11.276v.252c1.387,1.123,2.943,1.1,4.609,1.736q.3.116.609.215a1.843,1.843,0,0,0-.5-.931l-5.4-5.4a2.452,2.452,0,0,1,3.468-3.468l1.213,1.213a25.929,25.929,0,0,0,9.06,5.879q.744.285,1.467.615a12,12,0,0,0,4.151-7.245l.371-2.23a10.724,10.724,0,0,1-3.929.565Zm0,0" transform="translate(-106.021 -169.429)" fill="#1167b1"/>
  <path id="Path_15175" data-name="Path 15175" d="M37.584,204.566a25.928,25.928,0,0,1-9.06-5.879l-1.213-1.213a2.452,2.452,0,0,0-3.468,0l-.013.014a2.443,2.443,0,0,0,.518.763l5.4,5.4a1.848,1.848,0,0,1-.337,2.887,1.853,1.853,0,0,1-2.79,2.426l-3.2-3.2a28.985,28.985,0,0,1-7.8-14.2,2.017,2.017,0,0,0-3.332-1.049,33.425,33.425,0,0,0,7.491,16.441,22.488,22.488,0,0,0,8.446,6.214l7.24,3.052h15.9v-.016L48.8,212.887a25.924,25.924,0,0,0-11.213-8.321Zm0,0" transform="translate(-11.301 -174.013)" fill="#fff"/>
  <path id="Path_15176" data-name="Path 15176" d="M41.741,38.989l-2.577-3.322A26.761,26.761,0,0,0,30.12,28.2a12.86,12.86,0,0,0,3.614-7l2.117-12.73a.84.84,0,0,0-.409-.866L22.463.112a.841.841,0,0,0-.955.079l-9.966,8.2A12.906,12.906,0,0,0,6.9,17.3c0,.029,0,.058-.006.087q-.438-1.33-.747-2.708a2.858,2.858,0,0,0-5.626.978A34.188,34.188,0,0,0,8.339,33.488a23.118,23.118,0,0,0,1.6,1.7L8.288,38.042l-4.5-2.6A.841.841,0,1,0,2.944,36.9l10.463,6.041a.841.841,0,1,0,.841-1.456l-4.5-2.6,1.468-2.542A23.419,23.419,0,0,0,17.1,39.933l7.24,3.052a.841.841,0,0,0,.654-1.55l-7.24-3.052A21.75,21.75,0,0,1,9.624,32.4,32.511,32.511,0,0,1,2.19,15.449a1.177,1.177,0,0,1,2.316-.4A29.789,29.789,0,0,0,8.986,25.382c.114.172.233.341.355.508a29.91,29.91,0,0,0,3.187,3.763l3.2,3.2a2.7,2.7,0,0,0,3.812-3.811l-5.4-5.4a1.611,1.611,0,0,1,2.279-2.279l1.213,1.213a26.592,26.592,0,0,0,9.354,6.069A25.081,25.081,0,0,1,37.835,36.7l2.577,3.322a.841.841,0,0,0,1.329-1.031Zm-29.13-29.3L22.127,1.86l2.135,1.233L19.745,6.808a.841.841,0,0,0,1.069,1.3l5-4.117L34.1,8.77,32.68,17.283c-.637.455-4.929,3.175-11.792-.519-4.361-2.348-7.813-2.265-9.942-1.782a10.334,10.334,0,0,0-2.093.714,11.22,11.22,0,0,1,3.757-6.008Zm5.021,22.271a1.006,1.006,0,0,1-.716-.3L16.249,31l.211.083a12.863,12.863,0,0,0,1.9.566l-.015.016A1.007,1.007,0,0,1,17.632,31.959Zm1.189-10.571-1.213-1.213a3.293,3.293,0,1,0-4.657,4.657L17.917,29.8c-.288-.085-.573-.18-.853-.288a16.207,16.207,0,0,1-4.382-2.53,11.168,11.168,0,0,1-1.968-2.062q-.167-.234-.329-.471a11.154,11.154,0,0,1-1.831-6.654c.976-.682,5.087-3.021,11.537.452a16.051,16.051,0,0,0,7.635,2.11,11.736,11.736,0,0,0,2.333-.228,10.566,10.566,0,0,0,2.27-.729l-.254,1.527a11.175,11.175,0,0,1-3.6,6.511q-.442-.188-.891-.36a24.926,24.926,0,0,1-8.766-5.688Zm0,0" transform="translate(-0.499 0.001)"/>
  <path id="Path_15177" data-name="Path 15177" d="M199.564,102.612a.841.841,0,1,0-.594-.246A.848.848,0,0,0,199.564,102.612Zm0,0" transform="translate(-182.055 -92.443)"/>
</svg>
