<svg xmlns="http://www.w3.org/2000/svg" width="29.255" height="24.755" viewBox="0 0 29.255 24.755">
  <g id="charity" transform="translate(0 -31.992)">
    <g id="Group_4576" data-name="Group 4576" transform="translate(6.997 31.992)">
      <g id="Group_4575" data-name="Group 4575" transform="translate(0 0)">
        <path id="Path_17686" data-name="Path 17686" d="M113.44,33.087c-1.481-1.4-4.018-1.714-6.313.582-2.292-2.293-4.833-1.977-6.313-.583a4.181,4.181,0,0,0-.092,6l6.406,6.407,6.406-6.406A4.181,4.181,0,0,0,113.44,33.087Zm-.7,5.206-5.61,5.611-5.61-5.61a3.054,3.054,0,0,1,.069-4.388,2.931,2.931,0,0,1,2.028-.788c1.611,0,2.336.963,3.514,2.141,1.147-1.147,1.885-2.141,3.514-2.141a2.94,2.94,0,0,1,2.029.787A3.054,3.054,0,0,1,112.737,38.293Z" transform="translate(-99.496 -31.992)" fill="#ff806c"/>
      </g>
    </g>
    <g id="Group_4578" data-name="Group 4578" transform="translate(16.878 33.118)">
      <g id="Group_4577" data-name="Group 4577">
        <path id="Path_17687" data-name="Path 17687" d="M250.454,48.009a1.916,1.916,0,0,0-1.913,1.728l-.712,7.034a1.806,1.806,0,0,0-.9.484l-5.683,5.291A3.821,3.821,0,0,0,240,65.336v6.3h6.751V68.672a1.7,1.7,0,0,1,.541-1.234l4.27-4.309a2.8,2.8,0,0,0,.815-1.98V49.932A1.926,1.926,0,0,0,250.454,48.009Zm.8,13.139a1.68,1.68,0,0,1-.489,1.189l-4.257,4.3a2.818,2.818,0,0,0-.88,2.039v1.841h-4.5v-5.17a2.688,2.688,0,0,1,.881-1.967l5.7-5.31a.744.744,0,0,1,1.034,0,.729.729,0,0,1,.215.518.72.72,0,0,1-.2.5l-4.389,3.981.756.833,4.41-4a1.855,1.855,0,0,0,0-2.625,1.8,1.8,0,0,0-.588-.4l.71-7.021a.8.8,0,0,1,1.592.08Z" transform="translate(-240 -48.009)" fill="#2b75b7"/>
      </g>
    </g>
    <g id="Group_4580" data-name="Group 4580" transform="translate(0 33.118)">
      <g id="Group_4579" data-name="Group 4579">
        <path id="Path_17688" data-name="Path 17688" d="M11.134,62.545,5.45,57.255a1.8,1.8,0,0,0-.9-.484l-.712-7.034A1.923,1.923,0,0,0,0,49.932V61.148a2.794,2.794,0,0,0,.815,1.979l4.27,4.309a1.706,1.706,0,0,1,.541,1.235v2.966h6.751v-6.3A3.819,3.819,0,0,0,11.134,62.545Zm.118,7.967h-4.5V68.672a2.819,2.819,0,0,0-.88-2.039l-4.257-4.3a1.68,1.68,0,0,1-.489-1.189V49.932a.8.8,0,0,1,1.592-.082l.71,7.021a1.856,1.856,0,0,0-.587,3.022l4.41,4,.756-.833L3.616,59.08a.713.713,0,0,1-.2-.5.727.727,0,0,1,.215-.518.744.744,0,0,1,1.034,0l5.7,5.31a2.688,2.688,0,0,1,.881,1.967v5.173Z" transform="translate(0 -48.009)" fill="#2b75b7"/>
      </g>
    </g>
  </g>
</svg>
