<svg xmlns="http://www.w3.org/2000/svg" width="31.001" height="31" viewBox="0 0 31.001 31">
  <g id="Group_3558" data-name="Group 3558" transform="translate(332 -445.485)">
    <path id="Path_2960" data-name="Path 2960" d="M19.567,31.818a14.316,14.316,0,0,1-4.134,0V29.1a.517.517,0,0,0-.4-.5,11.264,11.264,0,0,1-3.626-1.5.517.517,0,0,0-.643.071L8.838,29.086a14.3,14.3,0,0,1-2.923-2.923L7.839,24.24a.517.517,0,0,0,.071-.643,11.264,11.264,0,0,1-1.5-3.625.517.517,0,0,0-.5-.4H3.184a14.28,14.28,0,0,1,0-4.134H5.9a.517.517,0,0,0,.5-.4,11.264,11.264,0,0,1,1.5-3.626.517.517,0,0,0-.071-.643L5.915,8.838A14.3,14.3,0,0,1,8.838,5.916l1.923,1.924a.517.517,0,0,0,.643.071,11.264,11.264,0,0,1,3.625-1.5.517.517,0,0,0,.4-.5V3.184a14.316,14.316,0,0,1,4.134,0V5.9a.517.517,0,0,0,.4.5,11.264,11.264,0,0,1,3.626,1.5.517.517,0,0,0,.643-.071l1.923-1.923a14.3,14.3,0,0,1,2.923,2.923l-1.924,1.923a.517.517,0,0,0-.071.643c.175.273.335.553.485.839.453.19.913.356,1.379.508a12.419,12.419,0,0,0-.775-1.547l1.945-1.945a.517.517,0,0,0,.059-.66A15.3,15.3,0,0,0,26.4,4.816a.517.517,0,0,0-.66.059L23.8,6.82a12.284,12.284,0,0,0-3.2-1.325V2.744a.517.517,0,0,0-.426-.508,15.371,15.371,0,0,0-5.349,0,.517.517,0,0,0-.426.508v2.75A12.284,12.284,0,0,0,11.2,6.82L9.258,4.874a.517.517,0,0,0-.66-.059A15.3,15.3,0,0,0,4.815,8.6a.517.517,0,0,0,.058.66L6.82,11.2a12.284,12.284,0,0,0-1.325,3.2H2.744a.517.517,0,0,0-.508.426,15.294,15.294,0,0,0,0,5.349.517.517,0,0,0,.508.426h2.75A12.284,12.284,0,0,0,6.82,23.8L4.874,25.743a.517.517,0,0,0-.058.66A15.3,15.3,0,0,0,8.6,30.186a.517.517,0,0,0,.66-.058L11.2,28.182a12.284,12.284,0,0,0,3.2,1.325v2.75a.517.517,0,0,0,.426.508,15.294,15.294,0,0,0,5.349,0,.517.517,0,0,0,.426-.508v-.982a13.253,13.253,0,0,1-1.033-1.1Z" transform="translate(-334 443.484)" fill="#9fbfdc"/>
    <path id="Path_2961" data-name="Path 2961" d="M25.231,19.032a6.149,6.149,0,0,1,4,1.466q.556-.18,1.1-.4a7.234,7.234,0,1,0-5.787,12.33q-.123-.529-.2-1.071a6.2,6.2,0,0,1,.891-12.33Z" transform="translate(-341.73 435.753)" fill="#9fbfdc"/>
    <path id="Path_2962" data-name="Path 2962" d="M47.041,24.246a19.37,19.37,0,0,1-7.046-2.186.517.517,0,0,0-.489,0,19.37,19.37,0,0,1-7.046,2.186.517.517,0,0,0-.46.514V31.4a12.194,12.194,0,0,0,7.55,11.222.517.517,0,0,0,.4,0A12.194,12.194,0,0,0,47.5,31.4V24.76a.517.517,0,0,0-.46-.514ZM46.467,31.4A11.16,11.16,0,0,1,39.75,41.587,11.16,11.16,0,0,1,33.033,31.4V25.217A20.385,20.385,0,0,0,39.75,23.1a20.385,20.385,0,0,0,6.717,2.118Z" transform="translate(-348.499 433.819)" fill="#9fbfdc"/>
    <path id="Path_2963" data-name="Path 2963" d="M37.333,36.518l-.733.728,3.339,3.366a.517.517,0,0,0,.733,0l6.675-6.731-.734-.728L40.3,39.514Z" transform="translate(-350.723 428.428)" fill="#9fbfdc"/>
  </g>
</svg>
