<svg xmlns="http://www.w3.org/2000/svg" width="27.928" height="22.669" viewBox="0 0 27.928 22.669">
  <g id="Group_3490" data-name="Group 3490" opacity="0.6">
    <g id="Group_504" data-name="Group 504">
      <g id="Group_503" data-name="Group 503">
        <path id="Path_231" data-name="Path 231" d="M23.838,4.09a13.964,13.964,0,0,0-19.748,0h0A13.873,13.873,0,0,0,0,13.964H0a13.845,13.845,0,0,0,2.793,8.379.818.818,0,0,0,.654.327H24.481a.818.818,0,0,0,.654-.327,13.846,13.846,0,0,0,2.792-8.379h0A13.873,13.873,0,0,0,23.838,4.09Zm.226,16.943H3.864a12.192,12.192,0,0,1-2.2-6.251h.908a.818.818,0,0,0,0-1.636H1.664a12.276,12.276,0,0,1,3.028-7.3l.637.637A.818.818,0,0,0,6.486,5.329l-.637-.637a12.276,12.276,0,0,1,7.3-3.028v.907a.818.818,0,0,0,1.636,0V1.664a12.276,12.276,0,0,1,7.3,3.028l-.637.637A.818.818,0,1,0,22.6,6.486l.637-.637a12.276,12.276,0,0,1,3.028,7.3h-.907a.818.818,0,0,0,0,1.636h.908A12.194,12.194,0,0,1,24.064,21.033Z" transform="translate(0)" fill="#fff"/>
      </g>
    </g>
    <g id="Group_508" data-name="Group 508" transform="translate(10.517 8.595)">
      <g id="Group_507" data-name="Group 507">
        <path id="Path_233" data-name="Path 233" d="M201.375,157.815a.818.818,0,0,0-1.157,0L198.035,160a3.449,3.449,0,1,0,1.157,1.157l2.183-2.183A.818.818,0,0,0,201.375,157.815Zm-5.129,6.94a1.811,1.811,0,1,1,1.811-1.811A1.813,1.813,0,0,1,196.246,164.755Z" transform="translate(-192.799 -157.576)" fill="#fff"/>
      </g>
    </g>
  </g>
</svg>
