<svg id="like_3_" data-name="like (3)" xmlns="http://www.w3.org/2000/svg" width="88" height="88" viewBox="0 0 88 88">
  <g id="Group_1953" data-name="Group 1953" transform="translate(27.57 56.356)">
    <g id="Group_1952" data-name="Group 1952">
      <path id="Path_16370" data-name="Path 16370" d="M163.344,328.392a1.717,1.717,0,1,0,.5,1.215A1.729,1.729,0,0,0,163.344,328.392Z" transform="translate(-160.41 -327.89)" fill="#2b75b7"/>
    </g>
  </g>
  <g id="Group_1955" data-name="Group 1955" transform="translate(0 16.769)">
    <g id="Group_1954" data-name="Group 1954">
      <path id="Path_16371" data-name="Path 16371" d="M88,139.217a7.3,7.3,0,0,0-5.693-7.112,7.286,7.286,0,0,0-6.07-11.323H57.111l2.5-7.428A11.6,11.6,0,0,0,52,98.556l-3.016-.917a1.718,1.718,0,0,0-2.116,1.06l-4.738,13.1a16.147,16.147,0,0,1-7.468,8.694l-4.734,2.578a5.583,5.583,0,0,0-4.5-2.285H1.719A1.719,1.719,0,0,0,0,122.5v44.576A1.719,1.719,0,0,0,1.719,168.8h23.7a5.59,5.59,0,0,0,4.826-2.775l2.426.951a26.319,26.319,0,0,0,9.647,1.824H72.351A7.287,7.287,0,0,0,78.4,157.444a7.284,7.284,0,0,0,4.284-11.212A7.3,7.3,0,0,0,88,139.217Zm-7.291,3.853H63.031a1.719,1.719,0,0,0,0,3.438H76.683a3.853,3.853,0,1,1,0,7.707H63.031a1.719,1.719,0,0,0,0,3.438h9.32a3.853,3.853,0,1,1,0,7.707H42.319a22.9,22.9,0,0,1-8.392-1.587l-2.918-1.145V145.764a1.719,1.719,0,0,0-3.437,0v17.443a2.153,2.153,0,0,1-2.151,2.151H3.438V124.219H25.42a2.153,2.153,0,0,1,2.151,2.151v5.836a1.719,1.719,0,0,0,3.438,0V126.39l5.293-2.883a19.581,19.581,0,0,0,9.057-10.544L49.541,101.4l1.454.442a8.16,8.16,0,0,1,5.359,10.412l-3.266,9.7a1.719,1.719,0,0,0,1.629,2.267H76.237a3.853,3.853,0,1,1,0,7.707H63.031a1.719,1.719,0,0,0,0,3.438H80.709a3.853,3.853,0,0,1,0,7.707Z" transform="translate(0 -97.564)" fill="#2b75b7"/>
    </g>
  </g>
  <g id="Group_1957" data-name="Group 1957" transform="translate(13.95 71.419)">
    <g id="Group_1956" data-name="Group 1956">
      <path id="Path_16372" data-name="Path 16372" d="M85.976,415.53a4.814,4.814,0,1,0,4.814,4.814A4.82,4.82,0,0,0,85.976,415.53Zm0,6.191a1.377,1.377,0,1,1,1.377-1.377A1.378,1.378,0,0,1,85.976,421.721Z" transform="translate(-81.162 -415.53)" fill="#ff806c"/>
    </g>
  </g>
  <g id="Group_1959" data-name="Group 1959" transform="translate(49.641)">
    <g id="Group_1958" data-name="Group 1958">
      <path id="Path_16373" data-name="Path 16373" d="M291.753.5a1.719,1.719,0,0,0-2.934,1.215A1.719,1.719,0,1,0,291.753.5Z" transform="translate(-288.819)" fill="#ff806c"/>
    </g>
  </g>
  <g id="Group_1961" data-name="Group 1961" transform="translate(49.641 6.417)">
    <g id="Group_1960" data-name="Group 1960">
      <path id="Path_16374" data-name="Path 16374" d="M290.539,37.333a1.719,1.719,0,0,0-1.719,1.719v4.182a1.719,1.719,0,0,0,3.438,0V39.052A1.719,1.719,0,0,0,290.539,37.333Z" transform="translate(-288.82 -37.333)" fill="#ff806c"/>
    </g>
  </g>
  <g id="Group_1963" data-name="Group 1963" transform="translate(61.599 22.561)">
    <g id="Group_1962" data-name="Group 1962">
      <path id="Path_16375" data-name="Path 16375" d="M370.711,131.266h-10.6a1.719,1.719,0,0,0,0,3.438h10.6a1.719,1.719,0,1,0,0-3.437Z" transform="translate(-358.393 -131.266)" fill="#ff806c"/>
    </g>
  </g>
  <g id="Group_1965" data-name="Group 1965" transform="translate(27.08 22.557)">
    <g id="Group_1964" data-name="Group 1964">
      <path id="Path_16376" data-name="Path 16376" d="M169.872,131.239h-10.6a1.719,1.719,0,0,0,0,3.438h10.6a1.719,1.719,0,0,0,0-3.437Z" transform="translate(-157.554 -131.239)" fill="#ff806c"/>
    </g>
  </g>
  <g id="Group_1967" data-name="Group 1967" transform="translate(34.919 7.836)">
    <g id="Group_1966" data-name="Group 1966">
      <path id="Path_16377" data-name="Path 16377" d="M211.1,51.1l-5-5a1.719,1.719,0,0,0-2.431,2.431l5,5A1.719,1.719,0,1,0,211.1,51.1Z" transform="translate(-203.162 -45.59)" fill="#ff806c"/>
    </g>
  </g>
  <g id="Group_1969" data-name="Group 1969" transform="translate(59.358 7.839)">
    <g id="Group_1968" data-name="Group 1968">
      <path id="Path_16378" data-name="Path 16378" d="M353.292,46.112a1.719,1.719,0,0,0-2.431,0l-5,5a1.719,1.719,0,0,0,2.431,2.431l5-5A1.719,1.719,0,0,0,353.292,46.112Z" transform="translate(-345.353 -45.609)" fill="#ff806c"/>
    </g>
  </g>
</svg>
