<?xml version="1.0" encoding="utf-8"?>
<!-- Generator: Adobe Illustrator 14.0.0, SVG Export Plug-In . SVG Version: 6.00 Build 43363)  -->
<!DOCTYPE svg PUBLIC "-//W3C//DTD SVG 1.1//EN" "http://www.w3.org/Graphics/SVG/1.1/DTD/svg11.dtd">
<svg version="1.1" id="Layer_5" xmlns="http://www.w3.org/2000/svg" xmlns:xlink="http://www.w3.org/1999/xlink" x="0px" y="0px"
	 width="43px" height="43px" viewBox="0 0 43 43" enable-background="new 0 0 43 43" xml:space="preserve">
<path fill="#1167B1" d="M13.205,1.164c0,0-2.178,1.873-1.146,3.479s2.502,1.954,1.557,3.156s-5.57,2.616-5.838-0.977
	S6.631,2.196,8.657,1.623s3.784-0.727,3.784-0.727h1.07L13.205,1.164z"/>
<g>
	<path fill="#D0EFFF" d="M36.758,17.338h-5.923c-0.479-0.833-1.373-1.387-2.399-1.387h-5.549l2.512-1.679
		c1.074-0.713,2.338-1.096,3.627-1.096c1.423,0,2.795,0.459,3.927,1.312L36.758,17.338z"/>
	<path fill="#D0EFFF" d="M38.922,17.948c0.375,0.375,0.61,0.895,0.61,1.47c0,1.151-0.931,2.081-2.081,2.081H31.21v-2.773
		c0-0.506-0.14-0.979-0.375-1.388h5.923h0.693C38.027,17.338,38.548,17.574,38.922,17.948z"/>
</g>
<path fill="#D0EFFF" d="M22.193,8.204c0,0.52-0.209,1.02-0.576,1.387l-0.555,0.555c-1.18,1.18-2.477,2.207-3.871,3.08l-1.358-2.045
	c-0.256-0.383-0.556-0.723-0.896-1.007c1.055-0.692,2.033-1.483,2.941-2.393l0.964-0.964c0.368-0.367,0.867-0.576,1.388-0.576
	C21.313,6.241,22.193,7.122,22.193,8.204L22.193,8.204z"/>
<path fill="#D0EFFF" d="M13.923,18.234c-0.063,0.222-0.09,0.45-0.09,0.692v2.775H12.48h-2.114L6.28,14.972l-0.007-0.063
	c-0.104-0.583-0.097-1.193,0.028-1.789c0.25-1.275,0.984-2.372,2.066-3.093C9.164,9.5,10.1,9.215,11.057,9.215
	c1.165,0,2.274,0.416,3.142,1.157h0.008c0.34,0.284,0.638,0.624,0.895,1.007l1.359,2.045l1.816,2.727h-1.671
	C15.318,16.154,14.229,17.035,13.923,18.234L13.923,18.234z"/>
<path fill="#1167B1" d="M6.361,17.038c1.675,2.092,5.023,4.663,5.023,4.663H5.497L1.24,12.517c-0.675-0.926-1.622-1.181-0.46-1.724
	c0.374-0.175,0.732-0.737,1.171-0.737c0.862,0,0,0,0.43,0.589C2.379,10.645,4.686,14.946,6.361,17.038z"/>
<circle fill="#1167B1" cx="8.233" cy="36.894" r="1.387"/>
<circle fill="#1167B1" cx="36.163" cy="36.894" r="1.387"/>
<path d="M32.482,43.201c-0.003,0.005-0.005,0.01-0.008,0.014c0.01,0.002,0.023,0.003,0.033,0.004
	C32.5,43.213,32.49,43.208,32.482,43.201z"/>
<path d="M10.315,32.291v-6.246c-0.462-0.123-0.924-0.253-1.386-0.406c0,0.005-0.001,2.009-0.001,2.013v4.217
	c-0.229-0.03-0.458-0.056-0.694-0.056c-0.235,0-0.466,0.021-0.692,0.056v-4.909c0-0.882,0.56-1.624,1.337-1.925
	c0-0.021,0-0.037,0-0.056c-0.868,0.015-1.593,0.027-2.104,0.036c-0.383,0.557-0.623,1.218-0.623,1.944v5.33
	c-1.637,0.78-2.774,2.447-2.774,4.379c0,2.676,2.179,4.855,4.855,4.855c2.677,0,4.854-2.18,4.854-4.854
	C13.088,34.737,11.951,33.07,10.315,32.291z M8.235,40.137c-1.912,0-3.468-1.555-3.468-3.467s1.556-3.47,3.468-3.47
	s3.469,1.554,3.469,3.47C11.704,38.582,10.147,40.137,8.235,40.137z"/>
<path d="M5.651,42.852c-0.053,0.001-0.1,0.002-0.151,0.003c0,0.019,0,0.035,0,0.056C5.551,42.891,5.599,42.867,5.651,42.852z"/>
<path d="M38.061,32.291v-5.33c0-0.429-0.086-0.833-0.23-1.209c-0.335-0.163-1.012-0.298-1.943-0.409
	c0.475,0.382,0.785,0.961,0.785,1.616v4.909c-0.23-0.03-0.459-0.056-0.693-0.056c-0.236,0-0.467,0.021-0.693,0.056v-6.295
	c-0.462-0.042-0.925-0.079-1.387-0.104v6.821c-1.637,0.778-2.773,2.446-2.773,4.379c0,2.676,2.18,4.854,4.855,4.854
	c2.674,0,4.854-2.18,4.854-4.854C40.834,34.737,39.697,33.07,38.061,32.291z M35.979,40.137c-1.912,0-3.469-1.555-3.469-3.467
	s1.557-3.47,3.469-3.47s3.467,1.554,3.467,3.47C39.445,38.582,37.891,40.137,35.979,40.137z"/>
<path d="M40.227,20.806H39.84c0.238-0.41,0.387-0.879,0.387-1.387c0-1.529-1.246-2.773-2.773-2.773H36.99l-3.618-2.715
	c-1.245-0.934-2.786-1.447-4.345-1.447c-1.434,0-2.819,0.42-4.012,1.216l-2.339,1.559h-3.293l-1.228-1.841
	c1.228-0.826,2.371-1.755,3.398-2.782l0.555-0.554c0.502-0.501,0.775-1.168,0.775-1.877c0-1.463-1.19-2.655-2.653-2.655
	c-0.709,0-1.377,0.276-1.877,0.777l-0.967,0.967c-0.742,0.742-1.57,1.408-2.445,2.015c-0.184-0.127-0.375-0.244-0.572-0.348
	c1.363-0.859,2.273-2.376,2.273-4.104c0-2.678-2.18-4.855-4.855-4.855c-2.675,0-4.855,2.177-4.855,4.854
	c0,1.733,0.918,3.252,2.289,4.112c-0.172,0.09-0.344,0.178-0.507,0.287c-1.144,0.762-1.942,1.896-2.286,3.215l-1.266-2.086
	C4.667,9.541,3.751,9.019,2.773,9.019c-0.496,0-0.98,0.131-1.405,0.383c-1.317,0.772-1.761,2.476-0.987,3.796l4.477,7.61H2.773
	C1.244,20.808,0,22.052,0,23.582c0,1.527,1.244,2.771,2.773,2.771l37.454,0.002c1.53,0,2.774-1.244,2.774-2.772
	C43,22.05,41.756,20.806,40.227,20.806z M37.451,18.032c0.765-0.001,1.387,0.621,1.387,1.386s-0.622,1.388-1.387,1.388h-5.549
	v-2.082c0-0.236-0.023-0.469-0.069-0.692H37.451z M25.785,14.853c2.008-1.342,4.818-1.263,6.753,0.188l2.14,1.604h-3.484
	c-0.635-0.836-1.629-1.387-2.756-1.387h-3.26L25.785,14.853z M28.436,16.644c1.146,0,2.08,0.934,2.08,2.08v2.082H15.257v-2.082
	c0-1.146,0.934-2.08,2.081-2.08H28.436z M18.369,8.272l0.967-0.967c0.236-0.236,0.563-0.371,0.896-0.371
	c0.699,0,1.269,0.568,1.269,1.268c0,0.334-0.135,0.661-0.371,0.896l-0.554,0.555c-0.962,0.962-2.036,1.832-3.188,2.607l-0.979-1.469
	c-0.123-0.184-0.258-0.357-0.398-0.523C16.854,9.664,17.645,8.997,18.369,8.272z M8.322,4.854c0-1.912,1.556-3.469,3.468-3.469
	s3.468,1.557,3.468,3.469s-1.556,3.468-3.468,3.468S8.322,6.767,8.322,4.854z M7.711,13.054c0.219-1.091,0.85-2.031,1.773-2.646
	c0.687-0.456,1.483-0.698,2.308-0.698c1.397,0,2.69,0.692,3.462,1.854l2.463,3.694h-0.378c-1.418,0-2.637,0.858-3.174,2.081h-0.007
	c-0.363,0-0.706-0.193-0.893-0.506l-1.574-2.625l-1.189,0.713l1.575,2.626c0.388,0.644,1.06,1.071,1.796,1.16
	c0,0.007-0.002,0.013-0.002,0.019v2.082H13.21h-1.722l-3.8-6.268C7.605,14.047,7.611,13.548,7.711,13.054z M1.577,12.492
	c-0.388-0.659-0.166-1.511,0.493-1.897c0.634-0.373,1.522-0.146,1.902,0.5l5.891,9.711H6.467L1.577,12.492z M40.227,24.967h-6.242
	c0,0-4.696,0.008-4.667,0.012L9.016,24.967H2.773c-0.764,0-1.387-0.622-1.387-1.387c0-0.768,0.623-1.389,1.387-1.389H13.21h6.208
	H31.21h6.241h2.773c0.767,0,1.389,0.621,1.389,1.389C41.613,24.345,40.991,24.967,40.227,24.967z"/>
<polygon points="29.288,24.975 29.317,24.979 29.288,24.834 "/>
</svg>
