<svg xmlns="http://www.w3.org/2000/svg" width="32.477" height="28.974" viewBox="0 0 32.477 28.974">
  <g id="house" transform="translate(0 -25.018)">
    <g id="Group_4572" data-name="Group 4572" transform="translate(0 25.018)">
      <g id="Group_4571" data-name="Group 4571" transform="translate(0 0)">
        <path id="Path_14112" data-name="Path 14112" d="M32.23,38.423l-5.992-5.117c.007-.035.014-.07.021-.112V26.5a.746.746,0,0,0-.721-.735H22.192a.728.728,0,0,0-.7.735v2.772l-4.8-4.088a.7.7,0,0,0-.91,0L.253,38.416a.7.7,0,1,0,.9,1.078l.014-.014L16.242,26.642l5.4,4.6,3.227,2.744,6.461,5.5a.7.7,0,0,0,.987-.077A.706.706,0,0,0,32.23,38.423Zm-7.378-6.3-1.96-1.652v-3.3h1.96Z" transform="translate(0 -25.018)" fill="#ff806c"/>
      </g>
    </g>
    <g id="Group_4574" data-name="Group 4574" transform="translate(3.095 29.036)">
      <g id="Group_4573" data-name="Group 4573" transform="translate(0 0)">
        <path id="Path_14113" data-name="Path 14113" d="M70.256,93.219l-1.967-1.68L57.81,82.586a.7.7,0,0,0-.91,0L46.421,91.539l-1.967,1.68a.7.7,0,0,0-.077.987.681.681,0,0,0,.966.084l.007-.007.875-.756v13.125a.739.739,0,0,0,.721.721H67.757a.734.734,0,0,0,.721-.721V93.527l.875.756a.7.7,0,0,0,.448.168.708.708,0,0,0,.532-.245A.692.692,0,0,0,70.256,93.219Zm-10.1,12.747h-5.6v-7.56h5.6Zm1.4,0V97.727a.7.7,0,0,0-.672-.721H53.827a.7.7,0,0,0-.672.721v8.239h-5.53V92.33l9.73-8.288,9.73,8.288v13.636Z" transform="translate(-44.208 -82.418)" fill="#2b75b7"/>
      </g>
    </g>
  </g>
</svg>
