<svg xmlns="http://www.w3.org/2000/svg" width="26.4" height="36" viewBox="0 0 26.4 36">
  <g id="_034-woman-2" data-name="034-woman-2" transform="translate(-68.267)">
    <path id="Path_15816" data-name="Path 15816" d="M97.8,336.327l-2.562-.318-1.128-.138L89.4,346.455l-4.7-10.584-1.128.138L81,336.327a4.8,4.8,0,0,0-4.2,4.764v7.164H102v-7.164A4.8,4.8,0,0,0,97.8,336.327Z" transform="translate(-7.933 -312.255)" fill="#215280"/>
    <g id="Group_1578" data-name="Group 1578" transform="translate(73.067 23.61)">
      <path id="Path_15817" data-name="Path 15817" d="M140.733,341.577l-.6,2.4,4.8,2.4-4.7-10.59-1.128.144-2.568,5.646Z" transform="translate(-136.533 -335.787)" fill="#3e76a3"/>
      <path id="Path_15818" data-name="Path 15818" d="M260.2,341.577h4.2l-2.568-5.646-1.128-.144-4.7,10.59,4.8-2.4Z" transform="translate(-247.6 -335.787)" fill="#3e76a3"/>
    </g>
    <path id="Path_15819" data-name="Path 15819" d="M224.267,415l2.4-5.4h-4.8Z" transform="translate(-142.8 -380.8)" fill="#ebebeb"/>
    <path id="Path_15820" data-name="Path 15820" d="M197.854,285.332a1.2,1.2,0,0,1-1.05-1.2V281.6h-6v2.538a1.2,1.2,0,0,1-1.05,1.2l-.654.084,2.3,5.178h4.8l2.3-5.184Z" transform="translate(-112.337 -261.8)" fill="#fedac6"/>
    <path id="Path_15821" data-name="Path 15821" d="M219.334,284.324V281.6h-6v2.724A5.567,5.567,0,0,0,219.334,284.324Z" transform="translate(-134.867 -261.8)" fill="#f5c4b0"/>
    <path id="Path_15822" data-name="Path 15822" d="M144.827,19.334V14.768a4.8,4.8,0,0,0-3-4.434,6.151,6.151,0,0,0-4.344-1.8h-1.026c-3.864,0-9.63,3-9.03,11.4a17.55,17.55,0,0,0,3.6,9.6l.6-3h9.6l.6,3C145.427,25.934,144.827,19.334,144.827,19.334Z" transform="translate(-54.96 -7.934)" fill="#d65b25"/>
    <path id="Path_15823" data-name="Path 15823" d="M138.934,157.2h-.6a1.8,1.8,0,0,1-1.8-1.8h0a1.8,1.8,0,0,1,1.8-1.8h.6Z" transform="translate(-63.467 -142.8)" fill="#f5c4b0"/>
    <g id="Group_1579" data-name="Group 1579" transform="translate(74.867 4.098)">
      <path id="Path_15824" data-name="Path 15824" d="M342.533,145.067h-1.2v3.6h1.2a1.8,1.8,0,1,0,0-3.6Z" transform="translate(-328.733 -138.965)" fill="#fedac6"/>
      <path id="Path_15825" data-name="Path 15825" d="M175.335,63.785l-.33,5.4a6.276,6.276,0,0,1-6.27,6h0a6.276,6.276,0,0,1-6.27-6l-.33-4.2,10.8-6.7Z" transform="translate(-162.135 -58.283)" fill="#fedac6"/>
    </g>
    <path id="Path_15826" data-name="Path 15826" d="M143.625,18.133c-2.4-3.6-2.4-6-2.4-6s-6.6,6-13.2,7.8c-.6-8.4,5.166-11.4,9.036-11.4h1.02a6.137,6.137,0,0,1,4.344,1.8h0a4.8,4.8,0,0,1,3,4.434v3.966" transform="translate(-55.516 -7.933)" fill="#e56b2e"/>
    <path id="Path_15827" data-name="Path 15827" d="M124.738,67.534s10.158-4.2,12.558-7.8c0,0-7.2,4.2-12.6,4.2A6.126,6.126,0,0,0,124.738,67.534Z" transform="translate(-52.23 -55.534)" fill="#d65b25"/>
    <path id="Path_15828" data-name="Path 15828" d="M76.8,354.019v7.248h2.4v-11.4A4.8,4.8,0,0,0,76.8,354.019Z" transform="translate(-7.933 -325.267)" fill="#1c496e"/>
    <circle id="Ellipse_121" data-name="Ellipse 121" cx="1.2" cy="1.2" r="1.2" transform="translate(83.867 10.2)"/>
    <path id="Path_15829" data-name="Path 15829" d="M223.936,168.556l-1.8-1.2a.6.6,0,0,1-.091-.923l1.8-1.8.848.848-1.282,1.283,1.191.794Z" transform="translate(-142.802 -153.057)"/>
    <path id="Path_15830" data-name="Path 15830" d="M350.467,141.332h-.6v-1.2h.6a1.2,1.2,0,0,0,0-2.4h-.6v-1.2h.6a2.4,2.4,0,0,1,0,4.8Z" transform="translate(-261.8 -126.932)"/>
    <path id="Path_15831" data-name="Path 15831" d="M160.824,148.05a6.863,6.863,0,0,1-6.869-6.574l-.329-4.18,1.2-.094.33,4.2a5.676,5.676,0,0,0,11.342.02l.331-5.41,1.2.073-.33,5.4A6.86,6.86,0,0,1,160.824,148.05Z" transform="translate(-79.357 -126.451)"/>
    <path id="Path_15832" data-name="Path 15832" d="M239.393,224.5h-.46v-1.2h.459a5.1,5.1,0,0,0,2.273-.537l.537,1.073A6.309,6.309,0,0,1,239.393,224.5Z" transform="translate(-158.666 -207.1)"/>
    <path id="Path_15833" data-name="Path 15833" d="M119.51,12.6a.6.6,0,0,1-.6-.557c-.265-3.7.67-6.817,2.7-9A9.6,9.6,0,0,1,128.51,0h1.026a6.875,6.875,0,0,1,4.712,1.891,5.379,5.379,0,0,1,3.263,4.941V10.8h-1.2V6.834a4.184,4.184,0,0,0-2.625-3.878.6.6,0,0,1-.2-.132A5.682,5.682,0,0,0,129.539,1.2H128.51a8.387,8.387,0,0,0-6.019,2.66,10.122,10.122,0,0,0-2.419,7.348c6.146-1.961,12.172-7.394,12.234-7.451a.6.6,0,0,1,1,.444c0,.019.05,2.293,2.3,5.667l-1,.665a15.376,15.376,0,0,1-2.34-5.16c-2,1.677-7.254,5.747-12.6,7.206A.6.6,0,0,1,119.51,12.6Z" transform="translate(-47.043 0)"/>
    <circle id="Ellipse_122" data-name="Ellipse 122" cx="1.2" cy="1.2" r="1.2" transform="translate(76.667 10.2)"/>
    <path id="Path_15834" data-name="Path 15834" d="M317.092,196.732a.6.6,0,0,1-.588-.482l-.6-3,1.177-.236.356,1.778a14.128,14.128,0,0,0,2.056-7.06h1.2c0,.23-.037,5.685-3.176,8.824A.6.6,0,0,1,317.092,196.732Z" transform="translate(-230.225 -174.532)"/>
    <path id="Path_15835" data-name="Path 15835" d="M123.683,180.366a.6.6,0,0,1-.476-.235,18.084,18.084,0,0,1-3.723-9.928l1.2-.075a16.88,16.88,0,0,0,2.686,8.153l.326-1.633,1.177.236-.6,3a.6.6,0,0,1-.452.466A.586.586,0,0,1,123.683,180.366Z" transform="translate(-47.616 -158.166)"/>
    <path id="Path_15836" data-name="Path 15836" d="M122.467,173.067h-.6a2.4,2.4,0,0,1-2.4-2.4h1.2a1.2,1.2,0,0,0,1.2,1.2h.6v1.2Z" transform="translate(-47.6 -158.667)"/>
    <path id="Path_15837" data-name="Path 15837" d="M185.282,340.97a.6.6,0,0,1-.548-.356l-4.8-10.8,1.1-.488,4.252,9.567,4.252-9.566,1.1.488-4.8,10.8A.6.6,0,0,1,185.282,340.97Z" transform="translate(-103.815 -306.171)"/>
    <path id="Path_15838" data-name="Path 15838" d="M69.467,297.8h-1.2v-7.163a5.41,5.41,0,0,1,4.725-5.36l4.345-.54a.6.6,0,0,0,.524-.6V281.6h1.2v2.532a1.8,1.8,0,0,1-1.575,1.8l-4.345.54a4.207,4.207,0,0,0-3.674,4.169V297.8Z" transform="translate(0 -261.8)"/>
    <path id="Path_15839" data-name="Path 15839" d="M301.011,297.8h-1.2v-7.163a4.207,4.207,0,0,0-3.675-4.169l-4.343-.54a1.8,1.8,0,0,1-1.576-1.8V281.6h1.2v2.532a.6.6,0,0,0,.524.6l4.343.54a5.41,5.41,0,0,1,4.726,5.36Z" transform="translate(-206.344 -261.8)"/>
    <path id="Path_15840" data-name="Path 15840" d="M136.736,348.849l-4.8-2.4a.6.6,0,0,1-.314-.682l.413-1.655H128.6a.6.6,0,0,1-.548-.844l2.4-5.4,1.1.488-2.025,4.556H132.8a.6.6,0,0,1,.582.745l-.484,1.933,4.37,2.185Z" transform="translate(-55.537 -314.113)"/>
    <rect id="Rectangle_513" data-name="Rectangle 513" width="1.2" height="1.8" transform="translate(80.867 34.2)"/>
    <path id="Path_15841" data-name="Path 15841" d="M252.714,348.842l-.537-1.073,4.369-2.185-.483-1.933a.6.6,0,0,1,.583-.745h3.277l-2.025-4.556,1.1-.488,2.4,5.4a.6.6,0,0,1-.548.844h-3.431l.413,1.655a.6.6,0,0,1-.313.682Z" transform="translate(-170.979 -314.105)"/>
    <rect id="Rectangle_514" data-name="Rectangle 514" width="4.8" height="1.2" transform="translate(79.067 28.2)"/>
  </g>
</svg>
