<svg xmlns="http://www.w3.org/2000/svg" width="22.837" height="36.003" viewBox="0 0 22.837 36.003">
  <g id="Group_1857" data-name="Group 1857" transform="translate(0 0)">
    <g id="Group_1854" data-name="Group 1854" transform="translate(0.735 11.718)">
      <path id="Path_16121" data-name="Path 16121" d="M11.527,159.793a1.812,1.812,0,0,1,.082-3.622,1.767,1.767,0,0,1,.266.019" transform="translate(-9.798 -156.171)" fill="#e0b394"/>
      <path id="Path_16122" data-name="Path 16122" d="M267.45,159.793a1.812,1.812,0,0,0-.082-3.622,1.873,1.873,0,0,0-.266.019" transform="translate(-247.797 -156.171)" fill="#e0b394"/>
    </g>
    <path id="Path_16123" data-name="Path 16123" d="M47.745,307.192a5.3,5.3,0,0,1,4.276,5.2v7.032h-17.7v-7.032a5.3,5.3,0,0,1,4.276-5.2Z" transform="translate(-31.741 -284.143)" fill="#2bb4f3"/>
    <path id="Path_16124" data-name="Path 16124" d="M40.844,307.192H38.592a5.3,5.3,0,0,0-4.276,5.2v7.032h2.252v-7.032A5.3,5.3,0,0,1,40.844,307.192Z" transform="translate(-31.741 -284.143)" fill="#1687c4"/>
    <path id="Path_16125" data-name="Path 16125" d="M96.377,308.308c0,.011,0,.021,0,.032a4.937,4.937,0,1,1-9.874,0c0-.011,0-.021,0-.032" transform="translate(-80.013 -285.175)" fill="#e0b394"/>
    <path id="Path_16126" data-name="Path 16126" d="M40.072,77.142,36.76,74.736a6.59,6.59,0,0,1-2.677-6.056l.426-3.855A8.458,8.458,0,0,1,42.916,57.3h0a8.458,8.458,0,0,1,8.407,7.528l.426,3.855a6.59,6.59,0,0,1-2.677,6.056l-3.312,2.406A4.839,4.839,0,0,1,40.072,77.142Z" transform="translate(-31.489 -52.997)" fill="#fca"/>
    <path id="Path_16127" data-name="Path 16127" d="M42.917,57.3h0a8.458,8.458,0,0,0-8.407,7.528l-.426,3.856a6.59,6.59,0,0,0,2.677,6.056l3.312,2.406a4.833,4.833,0,0,0,2.842.924,3.145,3.145,0,0,1-2.169-.924l-2.529-2.406a7.577,7.577,0,0,1-2.044-6.056l.325-3.856c.362-4.285,3.127-7.528,6.42-7.528h0" transform="translate(-31.49 -52.999)" fill="#f2a077"/>
    <g id="Group_1855" data-name="Group 1855" transform="translate(3.16 4.3)">
      <path id="Path_16128" data-name="Path 16128" d="M55.28,58.863a12.417,12.417,0,0,1-2.827,3.313c-2.174,1.763-5.519,3.116-10.338,1.8A8.458,8.458,0,0,1,55.28,58.863Z" transform="translate(-42.115 -57.301)" fill="#f4d8a6"/>
      <path id="Path_16129" data-name="Path 16129" d="M186.277,84.452a6.744,6.744,0,0,1-6.377-3.027,12.414,12.414,0,0,0,2.827-3.313,8.608,8.608,0,0,1,.745.6,8.436,8.436,0,0,1,2.764,5.371Z" transform="translate(-169.562 -76.551)" fill="#f4d8a6"/>
    </g>
    <g id="Group_1856" data-name="Group 1856" transform="translate(9.771 1.547)">
      <path id="Path_16130" data-name="Path 16130" d="M137.063,27.479l1.359,3.064a1.34,1.34,0,0,0,2.308.246l1.575-2.16a1.34,1.34,0,0,0-.941-2.122l-3.333-.355-2.3-1.676-1.359-3.064a1.34,1.34,0,0,0-2.308-.246l-1.574,2.16a1.34,1.34,0,0,0,.941,2.122l3.332.355" transform="translate(-130.232 -20.614)" fill="#d2b4ef"/>
      <path id="Path_16131" data-name="Path 16131" d="M192.161,70.193a1.643,1.643,0,1,1-1.643,1.643A1.643,1.643,0,0,1,192.161,70.193Z" transform="translate(-185.995 -66.473)" fill="#d2b4ef"/>
    </g>
    <path id="Path_16132" data-name="Path 16132" d="M21.48,11.282l.943-1.294a2.067,2.067,0,0,0-1.451-3.273.727.727,0,1,0-.154,1.446.613.613,0,0,1,.43.971l-1.575,2.16c-.188.258-.455-.566-.561-.577s-.366.756-.5.464L17.507,8.673a2.382,2.382,0,0,0,.587-.8l.741.079a.741.741,0,0,0,.078,0,.727.727,0,0,0,.076-1.45l-.74-.079a2.374,2.374,0,0,0-2.32-1.886,2.4,2.4,0,0,0-.249.013l-1.111-2.5C14.266,1.364,13.641.083,12.9,0s-1.449,1.059-1.889,1.663L9.434,3.828A2.067,2.067,0,0,0,10.886,7.1l2.723.29a2.347,2.347,0,0,0,.182.538,10.053,10.053,0,0,1-9.747,2.513A9.17,9.17,0,0,1,8.881,5.252.727.727,0,0,0,9.267,4.3c-.156-.37-1.053-.163-1.423-.006a9.2,9.2,0,0,0-5.438,6.7,2.539,2.539,0,0,0-.573,4.975,7.333,7.333,0,0,0,3,6.358l.574.417a6.035,6.035,0,0,0-3.57,5.5V29.82a.727.727,0,0,0,1.454,0V28.244a4.579,4.579,0,0,1,2.549-4.1,5.664,5.664,0,0,0,10.8,1.223A.727.727,0,1,0,15.3,24.8a4.21,4.21,0,0,1-7.975-.668l.824.6a5.552,5.552,0,0,0,6.543,0l1.3-.943a4.573,4.573,0,0,1,3.557,4.455v6.305H17.568V29.374a.727.727,0,1,0-1.454,0v5.175H6.724V29.374a.727.727,0,1,0-1.454,0v5.175H3.293V29.1a.727.727,0,1,0-1.454,0v6.173A.727.727,0,0,0,2.566,36h17.7A.727.727,0,0,0,21,35.276V28.244a6.035,6.035,0,0,0-3.57-5.5L18,22.325a7.333,7.333,0,0,0,3-6.358,2.538,2.538,0,0,0,.476-4.685ZM1.989,14.464a1.086,1.086,0,0,1,.218-1.969Zm13.94-8.472a.916.916,0,1,1-.916.916A.917.917,0,0,1,15.929,5.992Zm-2.165-.046-2.724-.29a.613.613,0,0,1-.431-.971l1.575-2.16c.188-.258.455,1.241.56,1.252s.366-1.432.5-1.139l1.111,2.505A2.382,2.382,0,0,0,13.764,5.945Zm3.384,15.2-3.312,2.406a4.1,4.1,0,0,1-4.834,0L5.69,21.149a5.875,5.875,0,0,1-2.381-5.388l.426-3.855c0-.014,0-.028.005-.042a14.3,14.3,0,0,0,3.126.364A10.974,10.974,0,0,0,13.338,10.2c.419.511,5.021,2.651,6.022,3.226a.727.727,0,1,0,.726-1.26c-.809-.466-5.28-2.475-5.614-2.879q.164-.15.319-.3a2.355,2.355,0,0,0,1.14.293,2.388,2.388,0,0,0,.25-.013l1.11,2.5a2.046,2.046,0,0,0,1.67,1.217,2.138,2.138,0,0,0,.227.012h.038l.306,2.764A5.876,5.876,0,0,1,17.148,21.149Zm3.7-6.685L20.631,12.5a1.085,1.085,0,0,1,.218,1.968Z" transform="translate(0 0)"/>
    <path id="Path_16133" data-name="Path 16133" d="M115.7,241.475a3.18,3.18,0,0,0,5.892,0,.563.563,0,0,0-1.043-.423,2.054,2.054,0,0,1-3.805,0,.563.563,0,0,0-1.044.421Z" transform="translate(-106.982 -222.641)"/>
    <path id="Path_16134" data-name="Path 16134" d="M105.548,191.6a.677.677,0,0,0,.678-.677v-.376a.677.677,0,1,0-1.355,0v.376A.677.677,0,0,0,105.548,191.6Z" transform="translate(-97.003 -175.623)"/>
    <path id="Path_16135" data-name="Path 16135" d="M188.766,191.593a.675.675,0,0,0,.675-.675v-.374a.675.675,0,1,0-1.35,0v.374A.675.675,0,0,0,188.766,191.593Z" transform="translate(-173.979 -175.623)"/>
  </g>
</svg>
