<svg xmlns="http://www.w3.org/2000/svg" width="24.5" height="27.27" viewBox="0 0 24.5 27.27">
  <g id="s" transform="translate(-26)" opacity="0.6">
    <g id="Group_3512" data-name="Group 3512" transform="translate(43.576 21.091)">
      <g id="Group_3511" data-name="Group 3511">
        <path id="Path_17638" data-name="Path 17638" d="M356.533,396a.533.533,0,1,0,.533.533A.533.533,0,0,0,356.533,396Z" transform="translate(-356 -396)" fill="#fff"/>
      </g>
    </g>
    <g id="Group_3514" data-name="Group 3514" transform="translate(26)">
      <g id="Group_3513" data-name="Group 3513">
        <path id="Path_17639" data-name="Path 17639" d="M45.42,19.369l-2.531-.844-.909-1.818a5.833,5.833,0,0,0,1.579-3.086l.113-.679h.969a1.6,1.6,0,0,0,1.6-1.6V7.989a7.989,7.989,0,1,0-15.978,0v3.355a1.6,1.6,0,0,0,1.065,1.506v.624a1.6,1.6,0,0,0,1.6,1.6h.468a5.778,5.778,0,0,0,.893,1.383c.075.087.154.171.235.253l-.908,1.817-2.532.844A7.85,7.85,0,0,0,26,26.737a.533.533,0,0,0,.533.533H49.967a.533.533,0,0,0,.533-.533A7.85,7.85,0,0,0,45.42,19.369Zm-.246-8.024a.533.533,0,0,1-.533.533h-.813c.135-1.049.226-2.165.262-3.264,0-.031,0-.061,0-.092h1.081Zm-13.315.533a.533.533,0,0,1-.533-.533V8.522h1.081q0,.083.006.168v.006h0c.037,1.069.126,2.156.259,3.182h-.813Zm1.065,2.13a.533.533,0,0,1-.533-.533v-.533h.437l.113.68c.022.129.048.258.079.386Zm-.532-6.551H31.346a6.924,6.924,0,0,1,13.807,0H44.108A5.394,5.394,0,0,0,38.727,2.13h-.953A5.394,5.394,0,0,0,32.392,7.457ZM37.773,3.2h.953a4.331,4.331,0,0,1,4.317,4.336c0,.168,0,.314,0,.446,0,0,0,0,0,.005l-.666-.1a8.558,8.558,0,0,1-4.812-2.406.533.533,0,0,0-.377-.156,4.819,4.819,0,0,0-3.7,1.753A4.33,4.33,0,0,1,37.773,3.2ZM34.124,14.008a30.443,30.443,0,0,1-.639-5.169l.717-.956A3.749,3.749,0,0,1,36.974,6.4a9.634,9.634,0,0,0,5.248,2.545l.784.112c-.052,1.112-.16,2.229-.313,3.255h0c-.049.33-.087.542-.185,1.136A4.524,4.524,0,0,1,39.3,17.085a4.191,4.191,0,0,1-4.7-2.012h1.086a1.6,1.6,0,0,0,1.506,1.065H38.25a1.6,1.6,0,0,0,0-3.2H37.185a1.6,1.6,0,0,0-1.507,1.065Zm3.016,4.155a5.342,5.342,0,0,0,1.981.045l-.941,1Zm.308,1.814-1.689,1.786A20.293,20.293,0,0,1,34.566,19L35.2,17.73Zm3.762-2.428L41.934,19a20.287,20.287,0,0,1-1.193,2.766l-1.808-1.808ZM36.652,14.54a.533.533,0,0,1,.533-.533H38.25a.533.533,0,0,1,0,1.065H37.185A.533.533,0,0,1,36.652,14.54ZM27.087,26.2a6.731,6.731,0,0,1,4.33-5.825l2.242-.747a21.35,21.35,0,0,0,1.516,3.288l0,.005h0a21.355,21.355,0,0,0,1.458,2.226l.655,1.052ZM38.25,25.73l-.722-1.16q-.012-.019-.026-.038a20.306,20.306,0,0,1-1.2-1.793l1.9-2.009,2,2a20.286,20.286,0,0,1-1.2,1.8C38.972,24.567,39.009,24.512,38.25,25.73Zm.959.475.655-1.052a21.348,21.348,0,0,0,1.468-2.244l.008-.014v0a21.334,21.334,0,0,0,1.5-3.26l2.242.747a6.731,6.731,0,0,1,4.33,5.825h-10.2Z" transform="translate(-26)" fill="#fff"/>
      </g>
    </g>
    <g id="Group_3516" data-name="Group 3516" transform="translate(45.448 22.108)">
      <g id="Group_3515" data-name="Group 3515">
        <path id="Path_17640" data-name="Path 17640" d="M393.5,417.029A5.325,5.325,0,0,0,392,415.2a.533.533,0,0,0-.65.844,4.254,4.254,0,0,1,1.2,1.462.533.533,0,0,0,.953-.476Z" transform="translate(-391.139 -415.089)" fill="#fff"/>
      </g>
    </g>
  </g>
</svg>
