<svg xmlns="http://www.w3.org/2000/svg" width="29" height="28.563" viewBox="0 0 29 28.563">
  <g id="Group_3495" data-name="Group 3495" transform="translate(-103 -624)">
    <path id="Path_10813" data-name="Path 10813" d="M168.275,220.863H150.264a.932.932,0,1,1,0-1.863h18.012a.932.932,0,1,1,0,1.863Zm0,0" transform="translate(-37.207 418.35)" fill="#aac8e2"/>
    <path id="Path_10814" data-name="Path 10814" d="M155.24,145.454a.924.924,0,0,1-.658-.273l-4.969-4.969a.932.932,0,0,1,0-1.318l4.969-4.969a.932.932,0,0,1,1.318,1.318l-4.31,4.31,4.31,4.31a.931.931,0,0,1-.66,1.59Zm0,0" transform="translate(-37.472 498.728)" fill="#aac8e2"/>
    <path id="Path_10815" data-name="Path 10815" d="M13.886,28.895A14.1,14.1,0,0,1,0,14.613,14.1,14.1,0,0,1,13.886.332,13.826,13.826,0,0,1,26.81,9.389a.984.984,0,0,1-.534,1.263.94.94,0,0,1-1.228-.55A11.941,11.941,0,0,0,13.886,2.279,12.181,12.181,0,0,0,1.894,14.613,12.181,12.181,0,0,0,13.886,26.947a11.942,11.942,0,0,0,11.162-7.821.94.94,0,0,1,1.228-.551.984.984,0,0,1,.534,1.263,13.827,13.827,0,0,1-12.924,9.056Zm0,0" transform="translate(103 623.668)" fill="#aac8e2"/>
  </g>
</svg>
