<svg xmlns="http://www.w3.org/2000/svg" width="122.708" height="122.708" viewBox="0 0 122.708 122.708">
  <g id="transportation" transform="translate(0.001)">
    <g id="Group_3635" data-name="Group 3635" transform="translate(103.736 24.974)">
      <g id="Group_3634" data-name="Group 3634">
        <path id="Path_17677" data-name="Path 17677" d="M450.014,111.887A5.89,5.89,0,0,1,444.13,106a1.8,1.8,0,1,0-3.6,0,5.89,5.89,0,0,1-5.883,5.883,1.8,1.8,0,0,0,0,3.6,5.89,5.89,0,0,1,5.883,5.883,1.8,1.8,0,1,0,3.6,0,5.89,5.89,0,0,1,5.883-5.883,1.8,1.8,0,0,0,0-3.6Zm-7.684,3.93a9.58,9.58,0,0,0-2.129-2.129,9.576,9.576,0,0,0,2.129-2.129,9.582,9.582,0,0,0,2.129,2.129A9.581,9.581,0,0,0,442.33,115.818Z" transform="translate(-432.844 -104.203)" fill="#ff806c"/>
      </g>
    </g>
    <g id="Group_3637" data-name="Group 3637" transform="translate(-0.001 24.974)">
      <g id="Group_3636" data-name="Group 3636" transform="translate(0)">
        <path id="Path_17678" data-name="Path 17678" d="M17.169,111.887A5.89,5.89,0,0,1,11.285,106a1.8,1.8,0,0,0-3.6,0A5.89,5.89,0,0,1,1.8,111.887a1.8,1.8,0,1,0,0,3.6,5.89,5.89,0,0,1,5.883,5.883,1.8,1.8,0,0,0,3.6,0,5.89,5.89,0,0,1,5.883-5.883,1.8,1.8,0,1,0,0-3.6Zm-7.684,3.93a9.575,9.575,0,0,0-2.129-2.129,9.571,9.571,0,0,0,2.129-2.129,9.576,9.576,0,0,0,2.129,2.129A9.586,9.586,0,0,0,9.484,115.818Z" transform="translate(0.001 -104.203)" fill="#ff806c"/>
      </g>
    </g>
    <g id="Group_3639" data-name="Group 3639" transform="translate(49.947)">
      <g id="Group_3638" data-name="Group 3638">
        <path id="Path_17679" data-name="Path 17679" d="M229.418,9.605a7.813,7.813,0,0,1-7.8-7.8,1.8,1.8,0,1,0-3.6,0,7.813,7.813,0,0,1-7.8,7.8,1.8,1.8,0,1,0,0,3.6,7.813,7.813,0,0,1,7.8,7.8,1.8,1.8,0,1,0,3.6,0,7.813,7.813,0,0,1,7.8-7.8,1.8,1.8,0,1,0,0-3.6Zm-9.605,5.26a11.506,11.506,0,0,0-3.46-3.459,11.506,11.506,0,0,0,3.46-3.459,11.508,11.508,0,0,0,3.459,3.459A11.508,11.508,0,0,0,219.813,14.866Z" transform="translate(-208.406)" fill="#ff806c"/>
      </g>
    </g>
    <g id="Group_3641" data-name="Group 3641" transform="translate(23.276 38.421)">
      <g id="Group_3640" data-name="Group 3640">
        <path id="Path_17680" data-name="Path 17680" d="M172.7,182.646,165.69,162.8a3.728,3.728,0,0,0-3.51-2.483H107.738a3.728,3.728,0,0,0-3.51,2.483l-7.006,19.85a1.819,1.819,0,0,0,1.7,2.4H171a1.8,1.8,0,0,0,1.7-2.4Zm-71.23-1.2,6.159-17.45a.124.124,0,0,1,.113-.08H162.18a.124.124,0,0,1,.113.08l6.159,17.449Z" transform="translate(-97.122 -160.313)" fill="#2b75b7"/>
      </g>
    </g>
    <g id="Group_3643" data-name="Group 3643" transform="translate(84.286 84.527)">
      <g id="Group_3642" data-name="Group 3642">
        <path id="Path_17681" data-name="Path 17681" d="M363.093,352.689c-6.4,0-11.406,3.323-11.406,7.564s5.01,7.564,11.406,7.564,11.406-3.323,11.406-7.564S369.489,352.689,363.093,352.689Zm0,11.526c-4.467,0-7.8-2.092-7.8-3.962s3.337-3.962,7.8-3.962,7.8,2.092,7.8,3.962S367.56,364.215,363.093,364.215Z" transform="translate(-351.687 -352.689)" fill="#2b75b7"/>
      </g>
    </g>
    <g id="Group_3645" data-name="Group 3645" transform="translate(15.128 84.527)">
      <g id="Group_3644" data-name="Group 3644">
        <path id="Path_17682" data-name="Path 17682" d="M74.529,352.689c-6.4,0-11.406,3.323-11.406,7.564s5.01,7.564,11.406,7.564,11.406-3.323,11.406-7.564S80.925,352.689,74.529,352.689Zm0,11.526c-4.467,0-7.8-2.092-7.8-3.962s3.338-3.962,7.8-3.962,7.8,2.092,7.8,3.962S79,364.215,74.529,364.215Z" transform="translate(-63.123 -352.689)" fill="#2b75b7"/>
      </g>
    </g>
    <g id="Group_3647" data-name="Group 3647" transform="translate(1.68 32.658)">
      <g id="Group_3646" data-name="Group 3646">
        <path id="Path_17683" data-name="Path 17683" d="M124.078,161.24h-9.605a1.8,1.8,0,0,0-1.747,1.364l-1.265,5.061-8.849-25.07a9.5,9.5,0,0,0-8.944-6.328H39.225a9.5,9.5,0,0,0-8.944,6.329l-8.848,25.07L20.167,162.6a1.8,1.8,0,0,0-1.747-1.364H8.814a1.8,1.8,0,0,0-1.8,1.8v7.684a1.8,1.8,0,0,0,1.8,1.8h9.948l-6.14,8.6a9.433,9.433,0,0,0-1.767,5.513v22.511a9.477,9.477,0,0,0,3.845,7.621c0,.021,0,.042,0,.063v5.763a3.726,3.726,0,0,0,3.722,3.722H29.946a3.726,3.726,0,0,0,3.722-3.722v-3.962H99.224v3.962a3.726,3.726,0,0,0,3.722,3.722h11.526a3.726,3.726,0,0,0,3.722-3.722v-5.763c0-.021,0-.042,0-.063a9.477,9.477,0,0,0,3.845-7.621V186.635a9.432,9.432,0,0,0-1.767-5.513l-6.14-8.6h9.948a1.8,1.8,0,0,0,1.8-1.8v-7.684A1.8,1.8,0,0,0,124.078,161.24ZM10.615,168.924v-4.082h6.4l1.02,4.082Zm19.451,53.67a.12.12,0,0,1-.12.12H18.42a.12.12,0,0,1-.12-.12v-3.962H30.066v3.962Zm84.527,0a.12.12,0,0,1-.12.12H102.946a.12.12,0,0,1-.12-.12v-3.962h11.767Zm-2.041-7.564H20.34a5.893,5.893,0,0,1-5.6-4.082H118.152A5.893,5.893,0,0,1,112.552,215.03ZM81.935,195.579v4.082H50.957v-4.082Zm-30.694-3.6a5.893,5.893,0,0,1,5.6-4.082H76.051a5.893,5.893,0,0,1,5.6,4.082Zm30.694,11.286v4.082H50.957v-4.082Zm35.4-20.047a5.85,5.85,0,0,1,1.1,3.42v20.71h-32.9V193.778a9.5,9.5,0,0,0-9.485-9.485H56.841a9.5,9.5,0,0,0-9.485,9.485v13.568h-32.9v-20.71a5.85,5.85,0,0,1,1.1-3.42l7.635-10.689H89.5a1.8,1.8,0,0,0,0-3.6H24.807l8.87-25.131a5.893,5.893,0,0,1,5.548-3.925H93.667a5.893,5.893,0,0,1,5.548,3.925l8.869,25.131h-10.9a1.8,1.8,0,1,0,0,3.6H109.7Zm4.938-14.292h-7.419l1.021-4.082h6.4Z" transform="translate(-7.013 -136.266)" fill="#2b75b7"/>
      </g>
    </g>
    <g id="Group_3649" data-name="Group 3649" transform="translate(18.97 78.764)">
      <g id="Group_3648" data-name="Group 3648">
        <path id="Path_17684" data-name="Path 17684" d="M92.481,328.642H80.955a1.8,1.8,0,0,0,0,3.6H92.481a1.8,1.8,0,0,0,0-3.6Z" transform="translate(-79.154 -328.642)" fill="#2b75b7"/>
      </g>
    </g>
    <g id="Group_3651" data-name="Group 3651" transform="translate(88.128 78.764)">
      <g id="Group_3650" data-name="Group 3650">
        <path id="Path_17685" data-name="Path 17685" d="M381.045,328.642H369.519a1.8,1.8,0,0,0,0,3.6h11.526a1.8,1.8,0,0,0,0-3.6Z" transform="translate(-367.718 -328.642)" fill="#2b75b7"/>
      </g>
    </g>
  </g>
</svg>
