<svg xmlns="http://www.w3.org/2000/svg" width="26.401" height="36" viewBox="0 0 26.401 36">
  <g id="_026-man" data-name="026-man" transform="translate(-68.262)">
    <path id="Path_15796" data-name="Path 15796" d="M185.865,290a5.454,5.454,0,0,0,5.016-3.306l.288-.666-.66-.09a1.2,1.2,0,0,1-1.044-1.2V281.6h-7.2v3.15a1.2,1.2,0,0,1-1.044,1.2l-.66.09.288.666A5.455,5.455,0,0,0,185.865,290Z" transform="translate(-104.403 -261.8)" fill="#fedac6"/>
    <path id="Path_15797" data-name="Path 15797" d="M97.832,344.99l-3.132-.414-.288.666a5.46,5.46,0,0,1-10.032,0l-.288-.666-3.132.414a4.8,4.8,0,0,0-4.164,4.758v6.6H102v-6.6A4.8,4.8,0,0,0,97.832,344.99Z" transform="translate(-7.934 -320.348)" fill="#787d82"/>
    <path id="Path_15798" data-name="Path 15798" d="M212,284.6v-3h-7.2v3A7.65,7.65,0,0,0,212,284.6Z" transform="translate(-126.934 -261.8)" fill="#f5c4b0"/>
    <path id="Path_15799" data-name="Path 15799" d="M76.8,363.235v6.6h2.4V359.083A4.8,4.8,0,0,0,76.8,363.235Z" transform="translate(-7.934 -333.835)" fill="#717478"/>
    <rect id="Rectangle_505" data-name="Rectangle 505" width="2.4" height="3" transform="translate(71.262 33)" fill="#fedac6"/>
    <rect id="Rectangle_506" data-name="Rectangle 506" width="2.4" height="3" transform="translate(68.862 33)" fill="#f5c4b0"/>
    <g id="Group_1572" data-name="Group 1572" transform="translate(88.062 8.4)">
      <rect id="Rectangle_507" data-name="Rectangle 507" width="4.8" height="3" transform="translate(1.2 24.6)" fill="#fedac6"/>
      <path id="Path_15800" data-name="Path 15800" d="M350.463,119.467h-.6v3.6h.6a1.8,1.8,0,1,0,0-3.6Z" transform="translate(-349.863 -119.467)" fill="#fedac6"/>
    </g>
    <path id="Path_15801" data-name="Path 15801" d="M128,121.267a1.8,1.8,0,0,0,1.8,1.8h.6v-3.6h-.6A1.8,1.8,0,0,0,128,121.267Z" transform="translate(-55.534 -111.067)" fill="#f5c4b0"/>
    <path id="Path_15802" data-name="Path 15802" d="M162.561,13.748l.426-1.014a21.967,21.967,0,0,0,7.2,0,6.085,6.085,0,0,0,2.118,2.94l.882.75v-.09a6.372,6.372,0,0,0-6.2-7.8h-.792a6.372,6.372,0,0,0-6.2,7.8v.6l1.2-1.2A6.047,6.047,0,0,0,162.561,13.748Z" transform="translate(-85.125 -7.934)" fill="#a15d30"/>
    <g id="Group_1573" data-name="Group 1573" transform="translate(74.862 4.8)">
      <path id="SVGCleanerId_0" d="M174.447,71.207a6.086,6.086,0,0,1-2.118-2.94,21.967,21.967,0,0,1-7.2,0l-.426,1.014a6.047,6.047,0,0,1-1.374,1.986l-1.2,1.2v6.222a4.8,4.8,0,0,0,1.638,3.6l1.8,1.578a4.8,4.8,0,0,0,6.312,0l1.8-1.578a4.8,4.8,0,0,0,1.638-3.6V71.957Z" transform="translate(-162.129 -68.267)" fill="#f5c4b0"/>
    </g>
    <path id="Path_15803" data-name="Path 15803" d="M162.333,22.047v-.564a9.275,9.275,0,0,1,.834-3.852l.252-.564a6.366,6.366,0,0,0-3.486,7.2v.6l1.2-1.2A6.011,6.011,0,0,0,162.333,22.047Z" transform="translate(-85.071 -15.867)" fill="#8f4f24"/>
    <path id="SVGCleanerId_1" d="M164.529,96.053v-8.16a6.014,6.014,0,0,1-1.2,1.62l-1.2,1.2v6.222a4.8,4.8,0,0,0,1.638,3.6l1.8,1.578a4.943,4.943,0,0,0,.99.666l-1.32-3.162A9.372,9.372,0,0,1,164.529,96.053Z" transform="translate(-87.267 -81.713)" fill="#f5c4b0"/>
    <path id="Path_15804" data-name="Path 15804" d="M204.062,68.267a21.967,21.967,0,0,1-7.2,0l-.426,1.014c-.048.126-.114.246-.174.366v8.16a9.369,9.369,0,0,0,.714,3.6l1.32,3.162a4.8,4.8,0,0,0,5.322-.7l1.8-1.578a4.8,4.8,0,0,0,1.638-3.6V71.957l-.876-.75A6.085,6.085,0,0,1,204.062,68.267Z" transform="translate(-119 -63.467)" fill="#f5c4b0"/>
    <g id="Group_1576" data-name="Group 1576" transform="translate(74.862 4.8)">
      <g id="Group_1574" data-name="Group 1574">
        <path id="SVGCleanerId_0_1_" d="M174.447,71.207a6.086,6.086,0,0,1-2.118-2.94,21.967,21.967,0,0,1-7.2,0l-.426,1.014a6.047,6.047,0,0,1-1.374,1.986l-1.2,1.2v6.222a4.8,4.8,0,0,0,1.638,3.6l1.8,1.578a4.8,4.8,0,0,0,6.312,0l1.8-1.578a4.8,4.8,0,0,0,1.638-3.6V71.957Z" transform="translate(-162.129 -68.267)" fill="#fedac6"/>
      </g>
      <g id="Group_1575" data-name="Group 1575">
        <path id="SVGCleanerId_0_2_" d="M174.447,71.207a6.086,6.086,0,0,1-2.118-2.94,21.967,21.967,0,0,1-7.2,0l-.426,1.014a6.047,6.047,0,0,1-1.374,1.986l-1.2,1.2v6.222a4.8,4.8,0,0,0,1.638,3.6l1.8,1.578a4.8,4.8,0,0,0,6.312,0l1.8-1.578a4.8,4.8,0,0,0,1.638-3.6V71.957Z" transform="translate(-162.129 -68.267)" fill="#fedac6"/>
      </g>
    </g>
    <g id="Group_1577" data-name="Group 1577" transform="translate(74.862 6.18)">
      <path id="SVGCleanerId_1_1_" d="M164.529,96.053v-8.16a6.014,6.014,0,0,1-1.2,1.62l-1.2,1.2v6.222a4.8,4.8,0,0,0,1.638,3.6l1.8,1.578a4.943,4.943,0,0,0,.99.666l-1.32-3.162A9.372,9.372,0,0,1,164.529,96.053Z" transform="translate(-162.129 -87.893)" fill="#f5c4b0"/>
    </g>
    <path id="Path_15805" data-name="Path 15805" d="M209.6,204.8h-2.4a2.4,2.4,0,0,0-2.4,2.4v3.228l.444.384a4.8,4.8,0,0,0,6.312,0l.444-.384V207.2a2.4,2.4,0,0,0-2.4-2.4Z" transform="translate(-126.934 -190.4)" fill="#a15d30"/>
    <path id="Path_15806" data-name="Path 15806" d="M224.073,130.245l-1.8-.6a.6.6,0,0,1-.362-.806l1.8-4.2,1.1.473-1.543,3.6,1.181.394Z" transform="translate(-142.801 -115.875)"/>
    <path id="Path_15807" data-name="Path 15807" d="M350.463,115.732h-.6v-1.2h.6a1.2,1.2,0,1,0,0-2.4h-.6v-1.2h.6a2.4,2.4,0,0,1,0,4.8Z" transform="translate(-261.801 -103.132)"/>
    <path id="Path_15808" data-name="Path 15808" d="M122.463,115.734h-.6a2.4,2.4,0,0,1,0-4.8h.6v1.2h-.6a1.2,1.2,0,0,0,0,2.4h.6Z" transform="translate(-47.601 -103.134)"/>
    <circle id="Ellipse_119" data-name="Ellipse 119" cx="1.2" cy="1.2" r="1.2" transform="translate(76.662 9)"/>
    <circle id="Ellipse_120" data-name="Ellipse 120" cx="1.2" cy="1.2" r="1.2" transform="translate(83.262 9)"/>
    <path id="Path_15809" data-name="Path 15809" d="M230.854,224.5H230.4v-1.2h.458a5.1,5.1,0,0,0,2.274-.537l.537,1.073A6.313,6.313,0,0,1,230.854,224.5Z" transform="translate(-150.734 -207.1)"/>
    <path id="Path_15810" data-name="Path 15810" d="M158.648,22.2a5.4,5.4,0,0,1-3.562-1.35l-1.8-1.577a5.4,5.4,0,0,1-1.843-4.05V8.467A6.972,6.972,0,0,1,158.249,0h.793a6.971,6.971,0,0,1,6.8,8.466v6.756A5.4,5.4,0,0,1,164,19.274l-1.8,1.577A5.4,5.4,0,0,1,158.648,22.2Zm-.4-21a5.771,5.771,0,0,0-5.619,7.066.6.6,0,0,1,.015.134v6.822a4.2,4.2,0,0,0,1.433,3.149l1.8,1.578a4.158,4.158,0,0,0,5.525,0l1.8-1.579a4.2,4.2,0,0,0,1.434-3.15V8.4a.638.638,0,0,1,.015-.134A5.773,5.773,0,0,0,159.04,1.2h-.791Z" transform="translate(-77.184)"/>
    <path id="Path_15811" data-name="Path 15811" d="M156.944,64.96l-.848-.848,1.2-1.2a5.426,5.426,0,0,0,1.226-1.8l.449-1.014a.6.6,0,0,1,.647-.349,21.3,21.3,0,0,0,7,0,.6.6,0,0,1,.667.4,5.456,5.456,0,0,0,1.91,2.65l.881.659-.72.961-.882-.66A6.654,6.654,0,0,1,166.33,61a22.518,22.518,0,0,1-6.448,0l-.258.581a6.585,6.585,0,0,1-1.485,2.184Z" transform="translate(-81.658 -55.536)"/>
    <path id="Path_15812" data-name="Path 15812" d="M204.662,202.266h-1.2v-3a1.8,1.8,0,0,0-1.8-1.8h-2.4a1.8,1.8,0,0,0-1.8,1.8v3h-1.2v-3a3,3,0,0,1,3-3h2.4a3,3,0,0,1,3,3Z" transform="translate(-119 -182.466)"/>
    <rect id="Rectangle_508" data-name="Rectangle 508" width="1.2" height="3" transform="translate(80.862 18.6)"/>
    <path id="Path_15813" data-name="Path 15813" d="M69.462,297.8h-1.2v-6.6a5.418,5.418,0,0,1,4.685-5.353l3.792-.5a.6.6,0,0,0,.523-.6V281.6h1.2v3.138a1.8,1.8,0,0,1-1.566,1.795l-3.791.5a4.214,4.214,0,0,0-3.643,4.163Z" transform="translate(0 -261.8)"/>
    <path id="Path_15814" data-name="Path 15814" d="M308.869,297.8h-1.2v-6.6a4.216,4.216,0,0,0-3.644-4.151l-3.791-.5a1.8,1.8,0,0,1-1.565-1.8V281.6h1.2v3.15a.6.6,0,0,0,.522.605l3.793.5a5.42,5.42,0,0,1,4.685,5.339v6.6Z" transform="translate(-214.207 -261.8)"/>
    <path id="Path_15815" data-name="Path 15815" d="M177.307,343.007H177.3a6.045,6.045,0,0,1-5.564-3.67l-.384-.893,1.1-.473.384.894a4.849,4.849,0,0,0,4.462,2.942h.005a4.851,4.851,0,0,0,4.463-2.942l.384-.894,1.1.473-.384.894A6.048,6.048,0,0,1,177.307,343.007Z" transform="translate(-95.842 -314.207)"/>
    <rect id="Rectangle_509" data-name="Rectangle 509" width="1.2" height="4.8" transform="translate(73.062 31.2)"/>
    <rect id="Rectangle_510" data-name="Rectangle 510" width="4.8" height="1.2" transform="translate(68.862 32.4)"/>
    <rect id="Rectangle_511" data-name="Rectangle 511" width="1.2" height="4.8" transform="translate(88.662 31.2)"/>
    <rect id="Rectangle_512" data-name="Rectangle 512" width="4.8" height="1.2" transform="translate(89.262 32.4)"/>
  </g>
</svg>
